<?xml version="1.0" encoding="UTF-8" standalone="no"?>
<!-- Generator: Adobe Illustrator 21.1.0, SVG Export Plug-In . SVG Version: 6.00 Build 0)  -->

<svg
   xmlns:dc="http://purl.org/dc/elements/1.1/"
   xmlns:cc="http://creativecommons.org/ns#"
   xmlns:rdf="http://www.w3.org/1999/02/22-rdf-syntax-ns#"
   xmlns:svg="http://www.w3.org/2000/svg"
   xmlns="http://www.w3.org/2000/svg"
   xmlns:xlink="http://www.w3.org/1999/xlink"
   xmlns:sodipodi="http://sodipodi.sourceforge.net/DTD/sodipodi-0.dtd"
   xmlns:inkscape="http://www.inkscape.org/namespaces/inkscape"
   version="1.1"
   id="Layer_1"
   x="0px"
   y="0px"
   width="250"
   height="47"
   viewBox="0 0 250 46.999996"
   enable-background="new 0 0 852.5 574.9"
   xml:space="preserve"
   sodipodi:docname="ohm-tm-logo.svg"
   inkscape:version="0.91 r13725"><metadata
     id="metadata4721"><rdf:RDF><cc:Work
         rdf:about=""><dc:format>image/svg+xml</dc:format><dc:type
           rdf:resource="http://purl.org/dc/dcmitype/StillImage" /><dc:title></dc:title></cc:Work></rdf:RDF></metadata><defs
     id="defs4719"><linearGradient
       gradientTransform="matrix(-0.50295302,0.19839946,0.19720153,-0.43253662,46.15635,-45.582712)"
       y2="137.19565"
       x2="179.96115"
       y1="29.814894"
       x1="126.64295"
       gradientUnits="userSpaceOnUse"
       id="linearGradient6614"
       xlink:href="#linearGradient6589-6"
       inkscape:collect="always" /><linearGradient
       id="linearGradient6589-6"><stop
         style="stop-color:#ffffff;stop-opacity:1;"
         offset="0"
         id="stop6591-6" /><stop
         style="stop-color:#ffffff;stop-opacity:0;"
         offset="1"
         id="stop6593-1" /></linearGradient><radialGradient
       inkscape:collect="always"
       xlink:href="#linearGradient6846"
       id="radialGradient6427"
       cx="159.61317"
       cy="72.588303"
       fx="159.61317"
       fy="72.588303"
       r="38.416904"
       gradientTransform="matrix(1.2124778,0,0,0.83914637,-247.4345,-178.01888)"
       gradientUnits="userSpaceOnUse" /><linearGradient
       id="linearGradient6846"><stop
         id="stop6848"
         offset="0"
         style="stop-color:#ffffff;stop-opacity:1;" /><stop
         style="stop-color:#ffffff;stop-opacity:0.93050194;"
         offset="0.5"
         id="stop6852" /><stop
         id="stop6850"
         offset="1"
         style="stop-color:#ffffff;stop-opacity:0;" /></linearGradient><radialGradient
       inkscape:collect="always"
       xlink:href="#linearGradient6846"
       id="radialGradient4387"
       cx="159.61317"
       cy="72.588303"
       fx="159.61317"
       fy="72.588303"
       r="38.416904"
       gradientTransform="matrix(1.2124778,0,0,0.83914635,-46.348455,24.528408)"
       gradientUnits="userSpaceOnUse" /><radialGradient
       inkscape:collect="always"
       xlink:href="#linearGradient6846"
       id="radialGradient4397"
       cx="159.61317"
       cy="72.588303"
       fx="159.61317"
       fy="72.588303"
       r="38.416904"
       gradientTransform="matrix(1.2124778,0,0,0.83914635,-46.348455,24.528408)"
       gradientUnits="userSpaceOnUse" /><radialGradient
       inkscape:collect="always"
       xlink:href="#linearGradient6846"
       id="radialGradient4407"
       cx="159.61317"
       cy="72.588303"
       fx="159.61317"
       fy="72.588303"
       r="38.416904"
       gradientTransform="matrix(1.2124778,0,0,0.83914635,-46.348455,24.528408)"
       gradientUnits="userSpaceOnUse" /><radialGradient
       inkscape:collect="always"
       xlink:href="#linearGradient6846"
       id="radialGradient4417"
       cx="159.61317"
       cy="72.588303"
       fx="159.61317"
       fy="72.588303"
       r="38.416904"
       gradientTransform="matrix(1.2124778,0,0,0.83914635,-46.348455,24.528408)"
       gradientUnits="userSpaceOnUse" /><radialGradient
       r="38.416904"
       fy="72.588303"
       fx="159.61317"
       cy="72.588303"
       cx="159.61317"
       gradientTransform="matrix(1.2124778,0,0,0.83914637,-247.00583,-176.73285)"
       gradientUnits="userSpaceOnUse"
       id="radialGradient6482"
       xlink:href="#linearGradient6589-6"
       inkscape:collect="always" /><radialGradient
       r="38.416904"
       fy="72.588303"
       fx="159.61317"
       cy="72.588303"
       cx="159.61317"
       gradientTransform="matrix(1.2124778,0,0,0.83914635,-45.919787,25.814437)"
       gradientUnits="userSpaceOnUse"
       id="radialGradient4431"
       xlink:href="#linearGradient6589-6"
       inkscape:collect="always" /><radialGradient
       r="38.416904"
       fy="72.588303"
       fx="159.61317"
       cy="72.588303"
       cx="159.61317"
       gradientTransform="matrix(1.2124778,0,0,0.83914635,-45.919787,25.814437)"
       gradientUnits="userSpaceOnUse"
       id="radialGradient4439"
       xlink:href="#linearGradient6589-6"
       inkscape:collect="always" /><radialGradient
       r="38.416904"
       fy="72.588303"
       fx="159.61317"
       cy="72.588303"
       cx="159.61317"
       gradientTransform="matrix(1.2124778,0,0,0.83914635,-45.919787,25.814437)"
       gradientUnits="userSpaceOnUse"
       id="radialGradient4447"
       xlink:href="#linearGradient6589-6"
       inkscape:collect="always" /><radialGradient
       r="38.416904"
       fy="72.588303"
       fx="159.61317"
       cy="72.588303"
       cx="159.61317"
       gradientTransform="matrix(1.2124778,0,0,0.83914635,-45.919787,25.814437)"
       gradientUnits="userSpaceOnUse"
       id="radialGradient4455"
       xlink:href="#linearGradient6589-6"
       inkscape:collect="always" /><linearGradient
       inkscape:collect="always"
       xlink:href="#linearGradient6589-6"
       id="linearGradient6595"
       x1="126.64295"
       y1="29.814894"
       x2="179.96115"
       y2="137.19565"
       gradientUnits="userSpaceOnUse"
       gradientTransform="translate(-230,-179)" /><linearGradient
       y2="150.375"
       x2="133"
       y1="167.7272"
       x1="108.00327"
       gradientTransform="matrix(-1.9685436,-1.9685436,-1.742074,1.742074,366.18632,-1.4891118)"
       gradientUnits="userSpaceOnUse"
       id="linearGradient6279"
       xlink:href="#linearGradient4680"
       inkscape:collect="always" /><linearGradient
       id="linearGradient4680"><stop
         style="stop-color:#000000;stop-opacity:1;"
         offset="0"
         id="stop4682" /><stop
         style="stop-color:#000000;stop-opacity:0;"
         offset="1"
         id="stop4684" /></linearGradient><linearGradient
       inkscape:collect="always"
       xlink:href="#linearGradient5762-9-4"
       id="linearGradient6244"
       gradientUnits="userSpaceOnUse"
       gradientTransform="matrix(-1.9685436,-1.9685436,-1.742074,1.742074,366.18632,-1.4891118)"
       x1="123"
       y1="150.375"
       x2="133"
       y2="150.375" /><linearGradient
       id="linearGradient5762-9-4"><stop
         style="stop-color:#2d3335;stop-opacity:1;"
         offset="0"
         id="stop5764-6-1" /><stop
         id="stop5770-3-6"
         offset="0.5"
         style="stop-color:#4c464a;stop-opacity:1;" /><stop
         style="stop-color:#384042;stop-opacity:1;"
         offset="1"
         id="stop5766-6-3" /></linearGradient><linearGradient
       inkscape:collect="always"
       xlink:href="#linearGradient5862-3"
       id="linearGradient6247"
       gradientUnits="userSpaceOnUse"
       gradientTransform="matrix(0.98427179,0.98427179,-0.98427179,0.98427179,-97.06164,-294.1619)"
       x1="120"
       y1="186.5"
       x2="136"
       y2="186.5" /><linearGradient
       id="linearGradient5862-3"><stop
         style="stop-color:#f9e295;stop-opacity:1;"
         offset="0"
         id="stop5864-8" /><stop
         id="stop5876-09"
         offset="0.125"
         style="stop-color:#f7dd84;stop-opacity:1;" /><stop
         id="stop5874-2"
         offset="0.20580582"
         style="stop-color:#ffffff;stop-opacity:1;" /><stop
         id="stop5870-3"
         offset="0.30112621"
         style="stop-color:#f4ce51;stop-opacity:1;" /><stop
         style="stop-color:#f9e7aa;stop-opacity:1;"
         offset="0.3412039"
         id="stop5872-1" /><stop
         style="stop-color:#efbb0e;stop-opacity:1;"
         offset="1"
         id="stop5866-8" /></linearGradient><linearGradient
       inkscape:collect="always"
       xlink:href="#linearGradient5762-9-4"
       id="linearGradient6250"
       gradientUnits="userSpaceOnUse"
       gradientTransform="matrix(-0.98427179,-0.98427179,-0.98427179,0.98427179,154.91194,-42.188322)"
       x1="123"
       y1="150.375"
       x2="133"
       y2="150.375" /><linearGradient
       inkscape:collect="always"
       xlink:href="#linearGradient5762-9-4"
       id="linearGradient6253"
       gradientUnits="userSpaceOnUse"
       gradientTransform="matrix(0.98427179,0.98427179,-0.98427179,0.98427179,-97.06164,-294.1619)"
       x1="128"
       y1="134.35938"
       x2="130.875"
       y2="143.35938" /><radialGradient
       inkscape:collect="always"
       xlink:href="#linearGradient5745-3"
       id="radialGradient6256"
       gradientUnits="userSpaceOnUse"
       gradientTransform="matrix(1.0052137,1.0052137,1.0052137,-1.0052137,-270.83796,-125.74671)"
       cx="128"
       cy="86"
       fx="128"
       fy="86"
       r="47" /><linearGradient
       id="linearGradient5745-3"><stop
         style="stop-color:#d0e9f2;stop-opacity:0;"
         offset="0"
         id="stop5747-3" /><stop
         id="stop5753-6"
         offset="0.83932751"
         style="stop-color:#d0e9f2;stop-opacity:0;" /><stop
         style="stop-color:#d0e9f2;stop-opacity:0.28185329;"
         offset="0.94308507"
         id="stop5755-9" /><stop
         style="stop-color:#d0e9f2;stop-opacity:1;"
         offset="1"
         id="stop5749-0" /></linearGradient><linearGradient
       inkscape:collect="always"
       xlink:href="#linearGradient5862-3"
       id="linearGradient6241"
       gradientUnits="userSpaceOnUse"
       gradientTransform="matrix(0.9842718,0.9842718,-0.9842718,0.9842718,-163.00785,-228.21569)"
       x1="120"
       y1="186.5"
       x2="136"
       y2="186.5" /><clipPath
       clipPathUnits="userSpaceOnUse"
       id="clipPath8750"><path
         inkscape:connector-curvature="0"
         id="path8752"
         d="m 9,22.578406 c 0,0 7.5,12.393417 11.75,26.799687 C 25,63.784363 27,74.372608 27,74.372608 c 0,0 -5.5,13.194827 -8.25,25.417241 C 16,112.01226 13,123.2549 13,123.2549 c 0,0 5.75,15.53495 9.25,29.25188 3.5,13.71692 3.75,23.94671 3.75,23.94671 0,0 -4,10.57351 -7.5,24.85658 -3.5,14.28307 -5,31.15439 -5,31.15439 0,0 9.25,-2.74812 28.5,-1.05502 19.25,1.69311 32.25,3.3917 32.25,3.3917 0,0 12.75,-3.78119 24,-8.19107 11.25,-4.40987 16.25,-7.81426 16.25,-7.81426 0,0 5.5,0.0552 22.5,4.43025 17,4.37508 29.25,6.13433 29.25,6.13433 0,0 13,-3.80141 26,-7.85282 13,-4.05141 26.5,-10.14326 26.5,-10.14326 0,0 -0.75,-4.93934 4.25,-24.84373 5,-19.90438 8.75,-28.70768 8.75,-28.70768 0,0 -0.5145,-4.4553 -3.75,-19.4467 -1.75,-8.10847 -2.25,-4.06803 -2.25,-4.06803 0,0 16.264,-26.15535 16.5,-40.334481 C 242.5,78.94347 235,57.550053 235,57.550053 c 0,0 -4.75,-14.865832 -7.5,-29.143418 -2.75,-14.277586 -8.25,-25.0827591 -8.25,-25.0827591 0,0 -24.25,10.9612831 -31.75,13.0678661 -7.5,2.106582 -21,6.948431 -21,6.948431 0,0 -9.75,-3.461443 -22,-6.720691 -12.25,-3.259249 -29.75,-3.09389 -29.75,-3.09389 0,0 -3.25,3.762853 -22,9.779309 -18.75,6.016456 -27.5,7.974136 -27.5,7.974136 0,0 -18.5,-7.503763 -31.5,-8.952353 -13,-1.448591 -24,-0.05894 -24.75,0.251722 z"
         style="opacity:0.03913042;fill:url(#linearGradient8754);fill-opacity:1;stroke:none"
         sodipodi:nodetypes="cscscscscscscscscscscscscscscscsc" /></clipPath><filter
       inkscape:collect="always"
       id="filter7286"><feGaussianBlur
         inkscape:collect="always"
         stdDeviation="4.2868936"
         id="feGaussianBlur7288" /></filter><linearGradient
       inkscape:collect="always"
       xlink:href="#linearGradient4680"
       id="linearGradient4686-3"
       x1="94.25"
       y1="-94.671967"
       x2="9"
       y2="-179.96893"
       gradientUnits="userSpaceOnUse" /><linearGradient
       inkscape:collect="always"
       xlink:href="#linearGradient4680"
       id="linearGradient4742-3"
       x1="50.75"
       y1="-114.4375"
       x2="35.75"
       y2="-30.4375"
       gradientUnits="userSpaceOnUse" /><linearGradient
       inkscape:collect="always"
       xlink:href="#linearGradient4680"
       id="linearGradient4734-3"
       x1="77.625"
       y1="-163.125"
       x2="115.25"
       y2="-74.625"
       gradientUnits="userSpaceOnUse" /><linearGradient
       inkscape:collect="always"
       xlink:href="#linearGradient4680"
       id="linearGradient4726-9"
       x1="56.5"
       y1="-50.4375"
       x2="125.71875"
       y2="7.0625"
       gradientUnits="userSpaceOnUse" /><linearGradient
       inkscape:collect="always"
       xlink:href="#linearGradient4680"
       id="linearGradient4710-2"
       x1="35"
       y1="-163.29688"
       x2="180.75"
       y2="-146.79688"
       gradientUnits="userSpaceOnUse" /><linearGradient
       inkscape:collect="always"
       xlink:href="#linearGradient4680"
       id="linearGradient4718-4"
       x1="57.000099"
       y1="-141.10941"
       x2="179"
       y2="-41.609402"
       gradientUnits="userSpaceOnUse" /><linearGradient
       inkscape:collect="always"
       xlink:href="#linearGradient4680"
       id="linearGradient4694-4"
       x1="156"
       y1="-26.5"
       x2="208.25"
       y2="39.75"
       gradientUnits="userSpaceOnUse" /><linearGradient
       inkscape:collect="always"
       xlink:href="#linearGradient4680"
       id="linearGradient4702-4"
       x1="142.75"
       y1="-169.29688"
       x2="235"
       y2="-77.296875"
       gradientUnits="userSpaceOnUse" /><linearGradient
       inkscape:collect="always"
       xlink:href="#linearGradient6589-6"
       id="linearGradient4806-9"
       x1="214.25"
       y1="-161.35938"
       x2="166.5"
       y2="-113.71875"
       gradientUnits="userSpaceOnUse" /><linearGradient
       inkscape:collect="always"
       xlink:href="#linearGradient6589-6"
       id="linearGradient4790-3"
       x1="53.25"
       y1="-126.5"
       x2="57.65625"
       y2="-62.46875"
       gradientUnits="userSpaceOnUse" /><linearGradient
       inkscape:collect="always"
       xlink:href="#linearGradient6589-6"
       id="linearGradient4758-2"
       x1="39.5"
       y1="6.6250248"
       x2="75.71875"
       y2="-17.124975"
       gradientUnits="userSpaceOnUse" /><linearGradient
       inkscape:collect="always"
       xlink:href="#linearGradient6589-6"
       id="linearGradient4750-9"
       x1="102"
       y1="-162.34375"
       x2="85.3125"
       y2="-121.4375"
       gradientUnits="userSpaceOnUse" /><linearGradient
       inkscape:collect="always"
       xlink:href="#linearGradient6589-6"
       id="linearGradient4782-5"
       x1="117.75"
       y1="-78.09375"
       x2="63.5"
       y2="-14.75"
       gradientUnits="userSpaceOnUse" /><linearGradient
       inkscape:collect="always"
       xlink:href="#linearGradient6589-6"
       id="linearGradient4798-4"
       x1="180.68745"
       y1="-125.125"
       x2="133.93745"
       y2="-60.74995"
       gradientUnits="userSpaceOnUse" /><linearGradient
       inkscape:collect="always"
       xlink:href="#linearGradient6589-6"
       id="linearGradient4766-3"
       x1="170.75"
       y1="-23.5"
       x2="130.21875"
       y2="33.375"
       gradientUnits="userSpaceOnUse" /><linearGradient
       y2="-5.6563001"
       x2="181.75005"
       y1="-76"
       x1="213.5"
       gradientUnits="userSpaceOnUse"
       id="linearGradient4965"
       xlink:href="#linearGradient6589-6"
       inkscape:collect="always" /><linearGradient
       inkscape:collect="always"
       xlink:href="#linearGradient4680"
       id="linearGradient5168"
       x1="210.17188"
       y1="72.064125"
       x2="9"
       y2="-213.25346"
       gradientUnits="userSpaceOnUse"
       gradientTransform="translate(-230,12.999998)" /><clipPath
       clipPathUnits="userSpaceOnUse"
       id="clipPath5426"><path
         inkscape:connector-curvature="0"
         style="fill:#ceeeab;fill-opacity:1;stroke:none"
         d="m 9,12.25 c 0,0 7.5,13 11.75,27.75 C 25,54.75 27,65.5 27,65.5 c 0,0 -5.5,12.75 -8.25,24.75 -2.75,12 -5.75,23 -5.75,23 0,0 5.75,16 9.25,30 3.5,14 3.75,24.25 3.75,24.25 0,0 -4,10.25 -7.5,24.25 -3.5,14 -5,30.75 -5,30.75 0,0 9.25,-2 28.5,1.25 19.25,3.25 32.25,6 32.25,6 0,0 12.75,-2.75 24,-6.25 11.25,-3.5 16.25,-6.5 16.25,-6.5 0,0 5.5,0.5 22.5,6.25 17,5.75 29.25,8.5 29.25,8.5 0,0 13,-2.75 26,-5.75 13,-3 26.5,-8 26.5,-8 0,0 -0.75,-5 4.25,-24.5 5,-19.5 8.75,-28 8.75,-28 0,0 -0.5,-4.5 -3.75,-19.75 C 224.75,130.5 218,116 218,116 c 0,0 1.75,-10.5 6.75,-23.75 C 229.75,79 235,65.5 235,65.5 c 0,0 -4.75,-15.25 -7.5,-29.75 C 224.75,21.25 219.25,10 219.25,10 c 0,0 -24.25,9 -31.75,10.5 -7.5,1.5 -21,5.25 -21,5.25 0,0 -9.75,-4.25 -22,-8.5 -12.25,-4.25 -29.75,-5.5 -29.75,-5.5 0,0 -3.25,3.5 -22,8 -18.75,4.5 -27.5,5.75 -27.5,5.75 0,0 -18.5,-9 -31.5,-11.5 -13,-2.5 -24,-2 -24.75,-1.75 z"
         id="path5428" /></clipPath><clipPath
       clipPathUnits="userSpaceOnUse"
       id="clipPath5383"><path
         inkscape:connector-curvature="0"
         style="fill:#ceeeab;fill-opacity:1;stroke:none"
         d="m 9,12.25 c 0,0 7.5,13 11.75,27.75 C 25,54.75 27,65.5 27,65.5 c 0,0 -5.5,12.75 -8.25,24.75 -2.75,12 -5.75,23 -5.75,23 0,0 5.75,16 9.25,30 3.5,14 3.75,24.25 3.75,24.25 0,0 -4,10.25 -7.5,24.25 -3.5,14 -5,30.75 -5,30.75 0,0 9.25,-2 28.5,1.25 19.25,3.25 32.25,6 32.25,6 0,0 12.75,-2.75 24,-6.25 11.25,-3.5 16.25,-6.5 16.25,-6.5 0,0 5.5,0.5 22.5,6.25 17,5.75 29.25,8.5 29.25,8.5 0,0 13,-2.75 26,-5.75 13,-3 26.5,-8 26.5,-8 0,0 -0.75,-5 4.25,-24.5 5,-19.5 8.75,-28 8.75,-28 0,0 -0.5,-4.5 -3.75,-19.75 C 224.75,130.5 218,116 218,116 c 0,0 1.75,-10.5 6.75,-23.75 C 229.75,79 235,65.5 235,65.5 c 0,0 -4.75,-15.25 -7.5,-29.75 C 224.75,21.25 219.25,10 219.25,10 c 0,0 -24.25,9 -31.75,10.5 -7.5,1.5 -21,5.25 -21,5.25 0,0 -9.75,-4.25 -22,-8.5 -12.25,-4.25 -29.75,-5.5 -29.75,-5.5 0,0 -3.25,3.5 -22,8 -18.75,4.5 -27.5,5.75 -27.5,5.75 0,0 -18.5,-9 -31.5,-11.5 -13,-2.5 -24,-2 -24.75,-1.75 z"
         id="path5385" /></clipPath><clipPath
       clipPathUnits="userSpaceOnUse"
       id="clipPath5466"><path
         inkscape:connector-curvature="0"
         style="fill:#ceeeab;fill-opacity:1;stroke:none"
         d="m 9,12.25 c 0,0 7.5,13 11.75,27.75 C 25,54.75 27,65.5 27,65.5 c 0,0 -5.5,12.75 -8.25,24.75 -2.75,12 -5.75,23 -5.75,23 0,0 5.75,16 9.25,30 3.5,14 3.75,24.25 3.75,24.25 0,0 -4,10.25 -7.5,24.25 -3.5,14 -5,30.75 -5,30.75 0,0 9.25,-2 28.5,1.25 19.25,3.25 32.25,6 32.25,6 0,0 12.75,-2.75 24,-6.25 11.25,-3.5 16.25,-6.5 16.25,-6.5 0,0 5.5,0.5 22.5,6.25 17,5.75 29.25,8.5 29.25,8.5 0,0 13,-2.75 26,-5.75 13,-3 26.5,-8 26.5,-8 0,0 -0.75,-5 4.25,-24.5 5,-19.5 8.75,-28 8.75,-28 0,0 -0.5,-4.5 -3.75,-19.75 C 224.75,130.5 218,116 218,116 c 0,0 1.75,-10.5 6.75,-23.75 C 229.75,79 235,65.5 235,65.5 c 0,0 -4.75,-15.25 -7.5,-29.75 C 224.75,21.25 219.25,10 219.25,10 c 0,0 -24.25,9 -31.75,10.5 -7.5,1.5 -21,5.25 -21,5.25 0,0 -9.75,-4.25 -22,-8.5 -12.25,-4.25 -29.75,-5.5 -29.75,-5.5 0,0 -3.25,3.5 -22,8 -18.75,4.5 -27.5,5.75 -27.5,5.75 0,0 -18.5,-9 -31.5,-11.5 -13,-2.5 -24,-2 -24.75,-1.75 z"
         id="path5468" /></clipPath><filter
       inkscape:collect="always"
       id="filter8661"><feGaussianBlur
         inkscape:collect="always"
         stdDeviation="6.3109704"
         id="feGaussianBlur8663" /></filter><linearGradient
       inkscape:collect="always"
       xlink:href="#linearGradient4680"
       id="linearGradient8735"
       x1="122"
       y1="245.448"
       x2="122"
       y2="4.302"
       gradientUnits="userSpaceOnUse" /><filter
       inkscape:collect="always"
       id="filter8725"><feGaussianBlur
         inkscape:collect="always"
         stdDeviation="4.4575"
         id="feGaussianBlur8727" /></filter></defs><sodipodi:namedview
     pagecolor="#ffffff"
     bordercolor="#666666"
     borderopacity="1"
     objecttolerance="10"
     gridtolerance="10"
     guidetolerance="10"
     inkscape:pageopacity="0"
     inkscape:pageshadow="2"
     inkscape:window-width="1577"
     inkscape:window-height="939"
     id="namedview4717"
     showgrid="true"
     inkscape:pagecheckerboard="false"
     inkscape:zoom="4"
     inkscape:cx="124.36031"
     inkscape:cy="9.6659336"
     inkscape:window-x="248"
     inkscape:window-y="37"
     inkscape:window-maximized="0"
     inkscape:current-layer="Layer_1"><inkscape:grid
       type="xygrid"
       id="grid5447" /></sodipodi:namedview><g
     aria-label="TASKING MANAGER"
     style="font-style:normal;font-variant:normal;font-weight:normal;font-stretch:normal;font-size:18.66666602999999824px;font-family:Yantramanav;-inkscape-font-specification:'Yantramanav, Normal';font-variant-ligatures:normal;font-variant-caps:normal;font-variant-numeric:normal;font-feature-settings:normal;text-align:start;writing-mode:lr-tb;text-anchor:start;fill:#4f4444;stroke:none;stroke-opacity:1"
     id="text4692"><path
       d="m 96.742859,18.035705 h -9.059896 v 2.132813 h 3.126302 v 9.807291 h 2.779948 v -9.807291 h 3.153646 z"
       style="font-style:normal;font-variant:normal;font-weight:normal;font-stretch:normal;font-size:18.66666602999999824px;font-family:Yantramanav;-inkscape-font-specification:'Yantramanav, Normal';font-variant-ligatures:normal;font-variant-caps:normal;font-variant-numeric:normal;font-feature-settings:normal;text-align:start;writing-mode:lr-tb;text-anchor:start;fill:#4f4444;stroke:none;stroke-opacity:1"
       id="path886" /><path
       d="m 101.4551,21.244039 h 0.0456 l 1.2487,4.274739 h -2.53386 z m 2.58854,8.73177 h 2.78906 l -3.86458,-11.940104 h -2.98047 l -3.855469,11.940104 h 2.789063 l 0.674479,-2.324219 h 3.764327 z"
       style="font-style:normal;font-variant:normal;font-weight:normal;font-stretch:normal;font-size:18.66666602999999824px;font-family:Yantramanav;-inkscape-font-specification:'Yantramanav, Normal';font-variant-ligatures:normal;font-variant-caps:normal;font-variant-numeric:normal;font-feature-settings:normal;text-align:start;writing-mode:lr-tb;text-anchor:start;fill:#4f4444;stroke:none;stroke-opacity:1"
       id="path888" /><path
       d="m 112.32879,28.070861 c -1.51302,0 -2.24218,-0.53776 -2.24218,-1.914062 h -2.70703 l -0.009,0.04557 c -0.0638,2.579427 2.23307,3.964843 4.95833,3.964843 2.70704,0 4.48438,-1.239583 4.48438,-3.354166 0,-2.078125 -1.36719,-3.126302 -4.10156,-3.928385 -1.75912,-0.638021 -2.27865,-0.938803 -2.27865,-1.631511 0,-0.729166 0.67448,-1.285156 1.78646,-1.285156 1.14844,0 1.82292,0.647135 1.82292,1.613281 h 2.6888 l 0.0182,-0.05469 c 0.0638,-2.151042 -1.8138,-3.645834 -4.47526,-3.645834 -2.6888,0 -4.60287,1.339844 -4.60287,3.354167 0,2.059896 1.40365,2.925781 4.44792,3.882812 1.44922,0.528646 1.91406,0.865886 1.91406,1.722657 0,0.747395 -0.54687,1.239583 -1.70443,1.239583 z"
       style="font-style:normal;font-variant:normal;font-weight:normal;font-stretch:normal;font-size:18.66666602999999824px;font-family:Yantramanav;-inkscape-font-specification:'Yantramanav, Normal';font-variant-ligatures:normal;font-variant-caps:normal;font-variant-numeric:normal;font-feature-settings:normal;text-align:start;writing-mode:lr-tb;text-anchor:start;fill:#4f4444;stroke:none;stroke-opacity:1"
       id="path890" /><path
       d="m 125.04364,29.975809 h 3.37239 l -4.01953,-6.535156 3.70052,-5.404948 h -3.44531 l -2.625,4.675781 h -0.9388 v -4.675781 h -2.77995 v 11.940104 h 2.77995 v -4.794271 h 1.27604 z"
       style="font-style:normal;font-variant:normal;font-weight:normal;font-stretch:normal;font-size:18.66666602999999824px;font-family:Yantramanav;-inkscape-font-specification:'Yantramanav, Normal';font-variant-ligatures:normal;font-variant-caps:normal;font-variant-numeric:normal;font-feature-settings:normal;text-align:start;writing-mode:lr-tb;text-anchor:start;fill:#4f4444;stroke:none;stroke-opacity:1"
       id="path892" /><path
       d="m 132.12567,18.035705 h -2.77083 v 11.940104 h 2.77083 z"
       style="font-style:normal;font-variant:normal;font-weight:normal;font-stretch:normal;font-size:18.66666602999999824px;font-family:Yantramanav;-inkscape-font-specification:'Yantramanav, Normal';font-variant-ligatures:normal;font-variant-caps:normal;font-variant-numeric:normal;font-feature-settings:normal;text-align:start;writing-mode:lr-tb;text-anchor:start;fill:#4f4444;stroke:none;stroke-opacity:1"
       id="path894" /><path
       d="m 144.16603,18.035705 h -2.76172 v 7.592448 l -0.0547,0.01823 -4.36589,-7.610677 h -2.77995 v 11.940104 h 2.77995 v -7.592448 l 0.0456,-0.01823 4.375,7.610677 h 2.76172 z"
       style="font-style:normal;font-variant:normal;font-weight:normal;font-stretch:normal;font-size:18.66666602999999824px;font-family:Yantramanav;-inkscape-font-specification:'Yantramanav, Normal';font-variant-ligatures:normal;font-variant-caps:normal;font-variant-numeric:normal;font-feature-settings:normal;text-align:start;writing-mode:lr-tb;text-anchor:start;fill:#4f4444;stroke:none;stroke-opacity:1"
       id="path896" /><path
       d="m 155.48635,23.859924 h -4.66667 v 1.832031 h 1.88672 v 1.886719 c -0.34635,0.282552 -0.875,0.455729 -1.88672,0.455729 -1.41276,0 -2.21484,-1.102865 -2.21484,-2.761719 v -2.515625 c 0,-1.622395 0.84765,-2.743489 2.14192,-2.743489 1.30339,0 1.86849,0.628906 2.05079,1.895833 h 2.60677 l 0.009,-0.05469 c -0.20963,-2.470052 -1.66797,-3.973959 -4.75781,-3.973959 -2.84375,0 -4.82162,1.996094 -4.82162,4.894532 v 2.497395 c 0,2.907552 2.01433,4.894531 4.98568,4.894531 2.33333,0 3.84636,-0.85677 4.66667,-1.822916 z"
       style="font-style:normal;font-variant:normal;font-weight:normal;font-stretch:normal;font-size:18.66666602999999824px;font-family:Yantramanav;-inkscape-font-specification:'Yantramanav, Normal';font-variant-ligatures:normal;font-variant-caps:normal;font-variant-numeric:normal;font-feature-settings:normal;text-align:start;writing-mode:lr-tb;text-anchor:start;fill:#4f4444;stroke:none;stroke-opacity:1"
       id="path898" /><path
       d="m 161.91213,18.035705 v 11.940104 h 2.77995 V 27.01357 l -0.26433,-5.377604 0.0456,-0.0091 2.85286,8.348958 h 1.86849 l 2.88021,-8.421875 0.0456,0.0091 -0.26432,5.450521 v 2.962239 h 2.77995 V 18.035705 h -3.65495 l -2.70703,8.358073 h -0.0456 l -2.67969,-8.358073 z"
       style="font-style:normal;font-variant:normal;font-weight:normal;font-stretch:normal;font-size:18.66666602999999824px;font-family:Yantramanav;-inkscape-font-specification:'Yantramanav, Normal';font-variant-ligatures:normal;font-variant-caps:normal;font-variant-numeric:normal;font-feature-settings:normal;text-align:start;writing-mode:lr-tb;text-anchor:start;fill:#4f4444;stroke:none;stroke-opacity:1"
       id="path900" /><path
       d="m 180.97072,21.244039 h 0.0456 l 1.2487,4.274739 h -2.53385 z m 2.58854,8.73177 h 2.78906 l -3.86458,-11.940104 h -2.98047 l -3.85547,11.940104 h 2.78907 l 0.67448,-2.324219 h 3.76432 z"
       style="font-style:normal;font-variant:normal;font-weight:normal;font-stretch:normal;font-size:18.66666602999999824px;font-family:Yantramanav;-inkscape-font-specification:'Yantramanav, Normal';font-variant-ligatures:normal;font-variant-caps:normal;font-variant-numeric:normal;font-feature-settings:normal;text-align:start;writing-mode:lr-tb;text-anchor:start;fill:#4f4444;stroke:none;stroke-opacity:1"
       id="path902" /><path
       d="m 197.17645,18.035705 h -2.76172 v 7.592448 l -0.0547,0.01823 -4.36588,-7.610677 h -2.77995 v 11.940104 h 2.77995 v -7.592448 l 0.0456,-0.01823 4.375,7.610677 h 2.76172 z"
       style="font-style:normal;font-variant:normal;font-weight:normal;font-stretch:normal;font-size:18.66666602999999824px;font-family:Yantramanav;-inkscape-font-specification:'Yantramanav, Normal';font-variant-ligatures:normal;font-variant-caps:normal;font-variant-numeric:normal;font-feature-settings:normal;text-align:start;writing-mode:lr-tb;text-anchor:start;fill:#4f4444;stroke:none;stroke-opacity:1"
       id="path904" /><path
       d="m 203.50197,21.244039 h 0.0456 l 1.2487,4.274739 h -2.53385 z m 2.58854,8.73177 h 2.78906 l -3.86458,-11.940104 h -2.98047 l -3.85547,11.940104 h 2.78907 l 0.67448,-2.324219 h 3.76432 z"
       style="font-style:normal;font-variant:normal;font-weight:normal;font-stretch:normal;font-size:18.66666602999999824px;font-family:Yantramanav;-inkscape-font-specification:'Yantramanav, Normal';font-variant-ligatures:normal;font-variant-caps:normal;font-variant-numeric:normal;font-feature-settings:normal;text-align:start;writing-mode:lr-tb;text-anchor:start;fill:#4f4444;stroke:none;stroke-opacity:1"
       id="path906" /><path
       d="m 219.17905,23.859924 h -4.66667 v 1.832031 h 1.88672 v 1.886719 c -0.34635,0.282552 -0.875,0.455729 -1.88672,0.455729 -1.41276,0 -2.21484,-1.102865 -2.21484,-2.761719 v -2.515625 c 0,-1.622395 0.84766,-2.743489 2.14193,-2.743489 1.30338,0 1.86849,0.628906 2.05078,1.895833 h 2.60677 l 0.009,-0.05469 c -0.20963,-2.470052 -1.66796,-3.973959 -4.75781,-3.973959 -2.84375,0 -4.82161,1.996094 -4.82161,4.894532 v 2.497395 c 0,2.907552 2.01432,4.894531 4.98567,4.894531 2.33334,0 3.84636,-0.85677 4.66667,-1.822916 z"
       style="font-style:normal;font-variant:normal;font-weight:normal;font-stretch:normal;font-size:18.66666602999999824px;font-family:Yantramanav;-inkscape-font-specification:'Yantramanav, Normal';font-variant-ligatures:normal;font-variant-caps:normal;font-variant-numeric:normal;font-feature-settings:normal;text-align:start;writing-mode:lr-tb;text-anchor:start;fill:#4f4444;stroke:none;stroke-opacity:1"
       id="path908" /><path
       d="m 228.3301,22.729716 h -4.6849 v -2.561198 h 5.53255 v -2.132813 h -8.3125 v 11.940104 h 8.29428 v -2.132812 h -5.51433 v -2.980469 h 4.6849 z"
       style="font-style:normal;font-variant:normal;font-weight:normal;font-stretch:normal;font-size:18.66666602999999824px;font-family:Yantramanav;-inkscape-font-specification:'Yantramanav, Normal';font-variant-ligatures:normal;font-variant-caps:normal;font-variant-numeric:normal;font-feature-settings:normal;text-align:start;writing-mode:lr-tb;text-anchor:start;fill:#4f4444;stroke:none;stroke-opacity:1"
       id="path910" /><path
       d="m 233.19728,20.168518 h 1.8138 c 1.11198,0 1.73177,0.647135 1.73177,1.622396 0,0.957031 -0.60156,1.476562 -1.72265,1.476562 h -1.82292 z m 1.90495,5.23177 c 1.17578,0 1.77734,0.610677 1.77734,1.75 v 0.729167 c 0,0.729167 0.0911,1.75 0.52865,2.096354 h 2.86198 v -0.164062 c -0.46485,-0.346355 -0.62891,-1.294271 -0.62891,-1.932292 v -0.747396 c 0,-1.449219 -0.58333,-2.433593 -2.05989,-2.852864 1.28515,-0.565104 1.93229,-1.43099 1.93229,-2.679688 0,-2.233073 -1.73177,-3.582031 -4.50261,-3.582031 h -4.59375 V 29.95758 h 2.77995 v -4.575521 z"
       style="font-style:normal;font-variant:normal;font-weight:normal;font-stretch:normal;font-size:18.66666602999999824px;font-family:Yantramanav;-inkscape-font-specification:'Yantramanav, Normal';font-variant-ligatures:normal;font-variant-caps:normal;font-variant-numeric:normal;font-feature-settings:normal;text-align:start;writing-mode:lr-tb;text-anchor:start;fill:#4f4444;stroke:none;stroke-opacity:1"
       id="path912" /><g
       id="g5099"
       transform="matrix(0.1943962,0,0,0.1943962,61.756229,33.876812)"><g
         transform="translate(-230,-179)"
         id="g8737"
         style="display:inline"><path
           inkscape:connector-curvature="0"
           style="opacity:0.7;fill:#2d3335;fill-opacity:1;stroke:none;filter:url(#filter8661)"
           d="m 174.28125,35.875 c -17.59875,0 -35.19216,6.639475 -48.71875,19.90625 -0.16722,0.163278 -0.33437,0.303117 -0.5,0.46875 -22.05595,22.055948 -26.208705,55.25122 -12.46875,81.5 l -2.28125,1.625 c 2.24879,4.23988 4.94165,8.3068 8.09375,12.125 l -13.3125,13.34375 c -1.34137,-0.58575 -2.78858,-1.03331 -4.5625,-1.375 l -2.84375,2.84375 c -1.109469,-0.48387 -2.138019,-0.81588 -3.0625,-0.875 L 30.5,229.5625 c -0.03687,1.10087 0.22615,2.18738 0.65625,3.28125 l -0.53125,0.53125 -1.09375,1.09375 c 0.715438,3.7378 2.010432,6.82294 5.46875,10.28125 3.458318,3.45832 6.420414,4.63027 10.28125,5.46875 l 1.09375,-1.09375 0.71875,-0.71875 c 1.088203,0.46225 2.129899,0.78617 3.09375,0.84375 l 64.125,-64.125 c -0.24286,-0.97475 -0.62043,-1.93546 -1.03125,-2.90625 l 3,-3 c -0.24983,-1.73198 -0.67671,-3.19803 -1.3125,-4.59375 L 128.25,161.34375 c 3.8182,3.1521 7.88512,5.84497 12.125,8.09375 L 142,167.15625 c 26.24878,13.73995 59.44405,9.58719 81.5,-12.46875 0.16563,-0.16564 0.30547,-0.33278 0.46875,-0.5 C 250.66292,126.97054 250.51736,83.267352 223.5,56.25 209.91004,42.660041 192.09307,35.875 174.28125,35.875 Z m -0.5,3.28125 c 0.10467,0.0015 0.20783,-0.002 0.3125,0 0.94919,0.0184 1.89538,0.06527 2.84375,0.125 0.95844,0.06036 1.9188,0.147513 2.875,0.25 0.0937,0.01005 0.18754,0.0208 0.28125,0.03125 0.094,0.01048 0.1873,0.02037 0.28125,0.03125 0.1457,0.01688 0.29187,0.04464 0.4375,0.0625 0.8962,0.109902 1.79491,0.228119 2.6875,0.375 0.61909,0.101874 1.22687,0.224117 1.84375,0.34375 0.34295,0.06644 0.68907,0.11558 1.03125,0.1875 0.7237,0.152111 1.43647,0.323392 2.15625,0.5 0.31305,0.07681 0.62528,0.137311 0.9375,0.21875 0.0731,0.01906 0.1457,0.04319 0.21875,0.0625 0.9559,0.252837 1.89673,0.516294 2.84375,0.8125 0.0724,0.02261 0.14641,0.03963 0.21875,0.0625 0.94741,0.299842 1.90684,0.625541 2.84375,0.96875 0.0531,0.01945 0.10323,0.04291 0.15625,0.0625 0.95458,0.352395 1.90174,0.727633 2.84375,1.125 0.0515,0.02172 0.10478,0.04064 0.15625,0.0625 0.94184,0.400051 1.88491,0.836281 2.8125,1.28125 0.042,0.02016 0.083,0.04225 0.125,0.0625 0.93538,0.451087 1.86208,0.909529 2.78125,1.40625 0.0331,0.01788 0.0607,0.04456 0.0937,0.0625 0.92681,0.502833 1.84142,1.013321 2.75,1.5625 0.0321,0.01939 0.0617,0.04305 0.0937,0.0625 0.9081,0.550934 1.79937,1.121562 2.6875,1.71875 0.54895,0.369074 1.0842,0.76954 1.625,1.15625 0.3647,0.260827 0.73291,0.512412 1.09375,0.78125 0.0185,0.01381 0.044,0.01742 0.0625,0.03125 0.87764,0.655206 1.74021,1.359931 2.59375,2.0625 1.74268,1.434371 3.43142,2.962673 5.0625,4.59375 1.62048,1.62048 3.13618,3.300564 4.5625,5.03125 0.009,0.01124 0.022,0.02 0.0312,0.03125 0.70321,0.854357 1.40674,1.715235 2.0625,2.59375 0.28277,0.378769 0.53857,0.773223 0.8125,1.15625 0.36973,0.517057 0.74014,1.037986 1.09375,1.5625 0.0162,0.02399 0.0464,0.03849 0.0625,0.0625 0.59812,0.889626 1.16704,1.777833 1.71875,2.6875 0.0195,0.03207 0.0431,0.06166 0.0625,0.09375 0.54559,0.902919 1.06267,1.829073 1.5625,2.75 0.0179,0.03294 0.0447,0.06079 0.0625,0.09375 0.498,0.921212 0.95408,1.843744 1.40625,2.78125 0.0202,0.04194 0.0424,0.08302 0.0625,0.125 0.44611,0.929867 0.88027,1.868304 1.28125,2.8125 0.0218,0.05123 0.0409,0.104977 0.0625,0.15625 0.3948,0.936122 0.77461,1.895211 1.125,2.84375 0.0194,0.05253 0.0432,0.103686 0.0625,0.15625 0.34761,0.94836 0.66558,1.884632 0.96875,2.84375 0.0227,0.07167 0.0401,0.147026 0.0625,0.21875 0.29398,0.941172 0.56134,1.893822 0.8125,2.84375 0.0195,0.07353 0.0433,0.145172 0.0625,0.21875 0.0807,0.309554 0.14258,0.627132 0.21875,0.9375 0.17661,0.719779 0.34789,1.432546 0.5,2.15625 0.0719,0.342177 0.12106,0.688299 0.1875,1.03125 0.11963,0.616882 0.24188,1.224661 0.34375,1.84375 0.14688,0.892594 0.2651,1.791302 0.375,2.6875 0.0179,0.145959 0.0456,0.291463 0.0625,0.4375 0.0108,0.09329 0.0208,0.187929 0.0312,0.28125 0.0105,0.09398 0.0212,0.187243 0.0312,0.28125 0.10249,0.9562 0.18964,1.91656 0.25,2.875 0.0592,0.94244 0.10661,1.90049 0.125,2.84375 0.002,0.10413 -0.002,0.20837 0,0.3125 0.0154,1.05333 0.004,2.10385 -0.0312,3.15625 -0.0316,0.93056 -0.0847,1.85279 -0.15625,2.78125 -0.01,0.12493 -0.0209,0.25012 -0.0312,0.375 -0.0761,0.91807 -0.16591,1.8354 -0.28125,2.75 -0.1206,0.95626 -0.27395,1.92393 -0.4375,2.875 -0.0142,0.0824 -0.0168,0.16767 -0.0312,0.25 -0.022,0.12485 -0.0397,0.25026 -0.0625,0.375 -0.16526,0.90778 -0.3579,1.81727 -0.5625,2.71875 -0.0306,0.13463 -0.0623,0.27178 -0.0937,0.40625 -0.20775,0.88866 -0.44134,1.7751 -0.6875,2.65625 -0.16391,0.58672 -0.35028,1.16705 -0.53125,1.75 -0.17541,0.56412 -0.33984,1.12724 -0.53125,1.6875 -0.29467,0.86381 -0.60475,1.70882 -0.9375,2.5625 -0.0606,0.15549 -0.12566,0.31362 -0.1875,0.46875 -0.0449,0.11246 -0.0795,0.23148 -0.125,0.34375 -0.3561,0.87862 -0.72813,1.7276 -1.125,2.59375 -0.37698,0.82347 -0.7736,1.62644 -1.1875,2.4375 -0.0805,0.15778 -0.16807,0.31147 -0.25,0.46875 -0.41528,0.7974 -0.82998,1.59095 -1.28125,2.375 -0.0952,0.16556 -0.1844,0.33506 -0.28125,0.5 -0.19907,0.33885 -0.41915,0.66384 -0.625,1 -0.36165,0.59093 -0.74237,1.16777 -1.125,1.75 -0.005,0.007 0.005,0.0238 0,0.0312 -0.49081,0.74574 -1.00593,1.48819 -1.53125,2.21875 -0.45727,0.63592 -0.95404,1.25128 -1.4375,1.875 -0.19696,0.25409 -0.36119,0.52926 -0.5625,0.78125 -0.13402,0.16779 -0.2703,0.33315 -0.40625,0.5 -0.16351,0.20064 -0.3337,0.39451 -0.5,0.59375 -0.55662,0.66705 -1.13079,1.31785 -1.71875,1.96875 -0.60631,0.67104 -1.23531,1.34705 -1.875,2 -0.16096,0.16426 -0.30567,0.33692 -0.46875,0.5 -21.13035,21.13035 -52.25869,24.49488 -77.1875,11.15625 l 0.125,-0.1875 c -3.70417,-1.89661 -7.26167,-4.14046 -10.625,-6.78125 -0.53892,-0.42315 -1.06537,-0.86982 -1.59375,-1.3125 -0.51441,-0.43097 -1.0273,-0.8629 -1.53125,-1.3125 -0.0929,-0.0836 -0.18872,-0.1658 -0.28125,-0.25 -0.82173,-0.74776 -1.61189,-1.51814 -2.40625,-2.3125 -0.79436,-0.79436 -1.56473,-1.58452 -2.3125,-2.40625 -0.0842,-0.0925 -0.16639,-0.18838 -0.25,-0.28125 -0.4496,-0.50395 -0.88153,-1.01684 -1.3125,-1.53125 -0.44268,-0.52838 -0.88935,-1.05483 -1.3125,-1.59375 -2.64079,-3.36333 -4.88464,-6.92084 -6.78125,-10.625 l -0.1875,0.125 c -13.33863,-24.92881 -9.9741,-56.057154 11.15625,-77.1875 0.16308,-0.16308 0.33574,-0.307785 0.5,-0.46875 0.65295,-0.639685 1.32896,-1.268689 2,-1.875 0.6509,-0.587956 1.3017,-1.162134 1.96875,-1.71875 0.27214,-0.227086 0.53777,-0.465624 0.8125,-0.6875 0.34347,-0.277429 0.71509,-0.511958 1.0625,-0.78125 0.62372,-0.483463 1.23908,-0.980231 1.875,-1.4375 0.73753,-0.530331 1.497,-1.03609 2.25,-1.53125 0.58223,-0.382634 1.15907,-0.763354 1.75,-1.125 0.44667,-0.27336 0.89235,-0.551116 1.34375,-0.8125 0.68145,-0.394786 1.37084,-0.757473 2.0625,-1.125 0.17606,-0.09355 0.35456,-0.18946 0.53125,-0.28125 0.94525,-0.490975 1.88143,-0.9657 2.84375,-1.40625 0.86615,-0.396875 1.71513,-0.7689 2.59375,-1.125 0.15281,-0.06193 0.31559,-0.09555 0.46875,-0.15625 0.96839,-0.384022 1.92468,-0.758909 2.90625,-1.09375 0.56026,-0.191407 1.12338,-0.355843 1.6875,-0.53125 0.58295,-0.180968 1.16328,-0.367339 1.75,-0.53125 0.88115,-0.246163 1.76759,-0.479746 2.65625,-0.6875 0.0711,-0.01664 0.14757,-0.01486 0.21875,-0.03125 0.41593,-0.09574 0.83264,-0.193899 1.25,-0.28125 0.67213,-0.140825 1.35582,-0.287161 2.03125,-0.40625 0.0823,-0.01449 0.16763,-0.01709 0.25,-0.03125 0.95107,-0.163551 1.91874,-0.316902 2.875,-0.4375 1.96365,-0.247645 3.92987,-0.401636 5.90625,-0.46875 1.0524,-0.03564 2.10292,-0.04663 3.15625,-0.03125 l 5e-5,5e-5 z"
           id="path5604-26-0-3"
           transform="matrix(1,0.06864071,0,0.848698,-6.6011175e-8,36.913089)"
           clip-path="none" /><path
           inkscape:connector-curvature="0"
           style="opacity:0.5;fill:url(#linearGradient8735);fill-opacity:1;stroke:none;filter:url(#filter8725)"
           d="m 9,17.25 c 0,0 7.5,11 11.75,25.75 C 25,57.75 27,68.5 27,68.5 c 0,0 -5.5,12.75 -8.25,24.75 -2.75,12 -5.75,25 -5.75,25 0,0 5.75,16 9.25,30 3.5,14 3.75,22.25 3.75,22.25 0,0 -4,10.25 -7.5,24.25 -3.5,14 -5,30.75 -5,30.75 0,0 9.25,-2 28.5,1.25 19.25,3.25 32.25,6 32.25,6 0,0 12.75,-2.75 24,-6.25 11.25,-3.5 16.25,-6.5 16.25,-6.5 0,0 5.5,0.5 22.5,6.25 17,5.75 29.25,8.5 29.25,8.5 0,0 13,-2.75 26,-5.75 13,-3 26.5,-8 26.5,-8 0,0 -0.75,-5 4.25,-24.5 5,-19.5 8.75,-28 8.75,-28 0,0 -0.5,-2.5 -3.75,-17.75 C 224.75,135.5 218,121 218,121 c 0,0 1.75,-12.5 6.75,-25.75 C 229.75,82 235,68.5 235,68.5 c 0,0 -4.75,-15.25 -7.5,-29.75 C 224.75,24.25 219.25,15 219.25,15 c 0,0 -24.25,9 -31.75,10.5 -7.5,1.5 -21,5.25 -21,5.25 0,0 -9.75,-4.25 -22,-8.5 -12.25,-4.25 -29.75,-5.5 -29.75,-5.5 0,0 -3.25,3.5 -22,8 -18.75,4.5 -27.5,5.75 -27.5,5.75 0,0 -18.5,-9 -31.5,-11.5 -13,-2.5 -24,-2 -24.75,-1.75 z"
           id="path3834-49-7"
           sodipodi:nodetypes="cscscscscscscscscscscscscscscscsc"
           transform="matrix(1,0,0,0.846566,0,37.660073)" /></g><path
         inkscape:connector-curvature="0"
         id="path3834-9"
         d="m -221,-166.75 c 0,0 7.5,13 11.75,27.75 4.25,14.75 6.25,25.5 6.25,25.5 0,0 -5.5,12.75 -8.25,24.749998 -2.75,12 -5.75,23.000002 -5.75,23.000002 0,0 5.75,16 9.25,30 3.5,14 3.75,24.25 3.75,24.25 0,0 -4,10.2500001 -7.5,24.25 -3.5,14 -5,30.75 -5,30.75 0,0 9.25,-2 28.5,1.25 19.25,3.25 32.25,6 32.25,6 0,0 12.75,-2.75 24,-6.25 11.25,-3.5 16.25,-6.5 16.25,-6.5 0,0 5.5,0.5 22.5,6.25 17,5.75 29.25,8.5 29.25,8.5 0,0 13,-2.75 26,-5.75 13,-3 26.5,-8 26.5,-8 0,0 -0.75,-5 4.2500004,-24.5 5,-19.4999999 8.75,-28 8.75,-28 0,0 -0.5,-4.5 -3.75,-19.75 C -5.2499996,-48.5 -12,-63 -12,-63 c 0,0 1.75,-10.500002 6.7500004,-23.750002 C -0.24999962,-100 5.0000004,-113.5 5.0000004,-113.5 c 0,0 -4.75000002,-15.25 -7.5,-29.75 C -5.2499996,-157.75 -10.75,-169 -10.75,-169 c 0,0 -24.25,9 -31.75,10.5 -7.5,1.5 -21,5.25 -21,5.25 0,0 -9.75,-4.25 -22,-8.5 -12.25,-4.25 -29.75,-5.5 -29.75,-5.5 0,0 -3.25,3.5 -22,8 -18.75,4.5 -27.5,5.75 -27.5,5.75 0,0 -18.5,-9 -31.5,-11.5 -13,-2.5 -24,-2 -24.75,-1.75 z"
         style="display:inline;fill:#ceeeab;fill-opacity:1;stroke:none" /><g
         transform="translate(-230,-179)"
         clip-path="url(#clipPath5466)"
         id="g5438"
         style="display:inline"><path
           inkscape:connector-curvature="0"
           id="path5436"
           d="m 110.75,5.5 -4.25,7 c -0.75,9 -2.25,13.75 -8.5,16.5 -6.25,2.75 -12.25,3.5 -11,7.5 1.25,4 13,9.25 14.25,13 1.25,3.75 8.25,1.75 11,7 2.75,5.25 2,15.25 -3.75,17.25 -5.75,2 -17.5,0.5 -20.25,9.5 -2.75,9 -4.75,10.5 -9,12.75 -4.25,2.25 -7.25,10.5 -3.5,16.5 3.75,6 12.25,-1.25 15,-6.5 C 93.5,100.75 98,97.25 98,97.25 l 23.75,0 59,-1.75 3.25,-3.75 c 0,0 3.25,4 2.75,8.75 -0.5,4.75 -3.75,14.75 0.25,17.25 4,2.5 19.5,-2 24,-7 4.5,-5 -4.75,-28.25 -10.5,-29.5 -5.75,-1.25 -18.5,-1.75 -17,-7 1.5,-5.25 11.75,4.5 17.25,3.25 5.5,-1.25 16.75,-21 12,-25.25 C 208,48 188.5,47 187,44.25 c -1.5,-2.75 21,-8 22.25,-11 1.25,-3 -2.5,-7.25 -6.25,-8.5 C 199.25,23.5 189,41 182,40.5 175,40 162,46.25 164.75,52 c 2.75,5.75 -6,11 -14.5,6.5 -8.5,-4.5 -24.75,-13 -21.75,-24 3,-11 21.5,-18.75 21.5,-18.75 L 110.75,5.5 Z M 97.1875,112.71875 c -1.594849,0.14648 -4.46875,4.6875 -4.9375,7.03125 -0.5,2.5 -3.25,6.75 -3.5,12.25 -0.25,5.5 4.75,6.75 8.75,6.5 4,-0.25 2.75,-6.75 2,-15 -0.25,0 -0.5,-10.25 -2,-10.75 -0.09375,-0.0312 -0.206177,-0.041 -0.3125,-0.0312 l 0,-5e-5 z m 92.71875,51.65625 c -6.33545,0.29541 -6.625,7.46875 -7.40625,8.875 -1.25,2.25 2.25,13.75 2,18 -0.25,4.25 -4.75,5.25 -9.5,9.75 -4.75,4.5 0.5,16 11.25,31 l 44.75,1.25 -1,-35 c 0,0 4.75,-4.25 -20.75,-24.25 -9.5625,-7.5 -15.54248,-9.80225 -19.34375,-9.625 z M 39.9375,180.90625 C 35.908264,180.80371 31.65625,186.625 30.25,188.5 c -1.5,2 -6.25,5 -17,9.5 l -14.5,34.25 53,4.25 c 0,0 1.75,-11 -4.25,-15.75 C 41.5,216 30.25,215 29.25,207.5 28.25,200 38.5,197.5 43,193.25 47.5,189 45,182 40.75,181 c -0.265625,-0.0625 -0.543884,-0.0869 -0.8125,-0.0937 l 0,-5e-5 z"
           style="fill:#a6dd8b;fill-opacity:1;stroke:none" /></g><path
         inkscape:connector-curvature="0"
         id="path5280"
         d="m -71.46875,-93.656252 c -4.75983,-0.01434 -9.03125,0.96875 -11.53125,3.15625 -8,7 -35,0.75 -48.5,7 -13.5,6.25 -13.25,38.000002 -14.75,44.500002 -1.5,6.5 -17.5,20.75 -20,23.5 -2.5,2.75 -13.25,7.2500001 -19.5,8.5000001 -6.25,1.25 -12.75,7.24999999 -15.5,11 -2.02112,2.75608 -7.40602,6.4503099 -10.125,8.2187499 -0.0458,0.18128 -0.0794,0.34868 -0.125,0.53125 -0.13369,0.53475 -0.24712,1.08331 -0.375,1.625 4.97951,-1.60482 11.17951,-8.1795099 16.625,-13.62499991 6.25,-6.24999999 20,-7.74999999 27.75,-11.50000009 7.75,-3.75 14.25,-19.75 26.5,-23.75 12.25,-4 21.25,11.75 24.25,18.5 3,6.7500001 1.75,12.7500001 3.75,17.0000001 2,4.25 11,11.7499999 11.5,13.4999999 0.5,1.75 -5,6.5 -6.25,8.5 -1.25,2 -10.5,7 -11.75,8.75 -0.96568,1.35195 -1.92316,6.77314 -2.3125,9.21875 0.41303,-0.1692 0.75418,-0.31053 1.125,-0.46875 0.484,-2.52933 1.51549,-7.07799 2.9375,-8.5 2,-2 11.25,-4.5 12.5,-8.5 1.25,-4 7,-6.5 7,-6.5 0,0 2.75,4 16,14 8.83333,6.66667 12.7581,15.53356 14.40625,20.71875 0.6736,0.17065 1.53295,0.4094 2.03125,0.53125 C -67.03365,47.93129 -70.64896,36.01115 -74.75,31.5 -79.75,26 -93.25,20.75 -97.5,9.5000001 -101.75,-1.7499999 -122,-24.75 -115,-30.75 c 7,-6 16.5,-4 28.5,7.5 12,11.5 46.25,5.75 57.75,3.75 9.95453,-1.73122 20.8344504,14.8832101 23.9062504,26.0312501 0.589,-2.09567 1.12663,-4.00219 1.65625,-5.75000001 -1.73806,-1.92579999 -3.69722,-4.61995999 -5.3125,-8.28124999 C -12.25,-16 -20.5,-20.75 -20.5,-20.75 c 0,0 8.75,-5 14.7500004,-7.75 1.61703,-0.74114 3.00627,-1.67713 4.1875,-2.65625 -0.16234,-0.77403 -0.25893,-1.25585 -0.4375,-2.09375 -0.0311,-0.14611 -0.062,-0.29154 -0.0937,-0.4375 -4.76565,5.5624 -19.2322604,9.61532 -21.6562504,10.9375 -2.75,1.5 -18.25,3 -35.75,4.5 -17.5,1.5 -26.75,-7.5 -34.25,-14.75 -7.5,-7.25 -13,-36.000002 -3,-38.000002 10,-2 20,13.750002 30,17.000002 10,3.25 21.5,-15.750002 19.75,-27.000002 -1.20312,-7.734375 -13.99713,-12.624695 -24.46875,-12.65625 l -5e-5,0 z m -53.34375,13.28125 c 1.27533,0.0015 5.85938,1.59375 6.5625,2.375 2.25,2.5 2,7.25 0,8 -2,0.75 -12.75,8.000002 -10.5,14.250002 2.25,6.25 1.75,18 -3.5,18 -5.25,0 -8,0 -10,-2.5 -2,-2.5 -2,-12 0,-19.75 2,-7.75 3.5,-15.000002 8,-18.250002 3.09375,-2.23438 6.63177,-2.128357 9.4375,-2.125 l 0,0 z m 13.59375,73.0937521 c 0.20325,0.0137 1.90625,3.51563 4.71875,7.03124999 3,3.75000001 3.25,8.25000001 3.25,8.25000001 0,0 -4.25,-4.75 -6,-8.000000007348573 C -111,-3.2499999 -111.25,-7.2499999 -111.25,-7.2499999 c 0,-0.0312 0.0178,-0.0323 0.0312,-0.0312 l 5e-5,-5e-5 z"
         style="display:inline;fill:#aac3e7;fill-opacity:1;stroke:none" /><path
         inkscape:connector-curvature="0"
         id="path5319"
         d="m -107.25,-106.75 c 6.25,0.5 12.25,-2.25 10.75,-6.5 -1.5,-4.25 -12.5,-7.25 -13.25,-3 -0.75,4.25 2,10.5 2.5,9.5 z"
         style="display:inline;opacity:0.38695655;fill:none;stroke:#6d7f42;stroke-width:1;stroke-linecap:round;stroke-linejoin:round;stroke-miterlimit:4;stroke-dasharray:none;stroke-opacity:1" /><path
         inkscape:connector-curvature="0"
         id="path5321"
         d="m -121.25,-122.25 c -8.5,-5.5 -8.5,-7.25 -7,-8 1.5,-0.75 10.25,5 12.75,8 2.5,3 -2.25,2 -5.75,0 z"
         style="display:inline;opacity:0.38695655;fill:none;stroke:#6d7f42;stroke-width:1;stroke-linecap:round;stroke-linejoin:round;stroke-miterlimit:4;stroke-dasharray:none;stroke-opacity:1" /><g
         transform="translate(-230,-179)"
         clip-path="url(#clipPath5383)"
         id="g5373"
         style="display:inline"><path
           inkscape:connector-curvature="0"
           style="opacity:0.38695655;fill:none;stroke:#6d7f42;stroke-width:1;stroke-linecap:round;stroke-linejoin:round;stroke-miterlimit:4;stroke-dasharray:none;stroke-opacity:1"
           d="M 15.75,151.25 C 48.75,148.75 54,147.75 52,141 50,134.25 43.25,117.5 29,118.5 14.75,119.5 6.25,111.75 6.25,111.75"
           id="path5323" /><path
           inkscape:connector-curvature="0"
           style="opacity:0.38695655;fill:none;stroke:#6d7f42;stroke-opacity:1"
           d="m 17.5,177.25 c 18.25,-10 28.75,-8.5 35,-11.5 6.25,-3 13.25,-5.75 15.75,-9.5 2.5,-3.75 5.75,-11.5 5.75,-18 0,-6.5 -3.5,-36 3.25,-43.5 6.75,-7.5 17.25,-26 26,-23.25 8.75,2.75 12.25,9.75 22,9.5 9.75,-0.25 21.75,-4 24.25,-12.25 2.5,-8.25 -15.75,-16 -16,-23 -0.25,-7 5.5,-14.25 20.25,-17 14.75,-2.75 23.5,-11.5 23.5,-11.5"
           id="path5311" /><path
           inkscape:connector-curvature="0"
           style="opacity:0.38695655;fill:none;stroke:#6d7f42;stroke-width:1;stroke-linecap:round;stroke-linejoin:round;stroke-miterlimit:4;stroke-dasharray:none;stroke-opacity:1"
           d="m 14.5,161 c 15.25,-1.5 22.25,3.5 31.5,1.75 9.25,-1.75 13.25,-3 17.75,-5.75 4.5,-2.75 6,-3.75 6.25,-6.5 0.25,-2.75 1,-12.5 -3,-22 C 63,119 54.5,97 58.75,89.75 63,82.5 64,68.25 74.5,65.25 85,62.25 95.5,59 102.25,64 c 6.75,5 12.75,14.25 20,14.5 7.25,0.25 11.75,-1.5 14.5,-4.5 2.75,-3 4.5,-10.25 1.75,-13.75 -2.75,-3.5 -15.5,-5.5 -17.25,-9.5 -1.75,-4 -10.75,-17 -0.25,-26.75 10.5,-9.75 36.25,-8.25 36.25,-8.25"
           id="path5313" /><path
           inkscape:connector-curvature="0"
           style="opacity:0.38695655;fill:none;stroke:#6d7f42;stroke-width:1;stroke-linecap:round;stroke-linejoin:round;stroke-miterlimit:4;stroke-dasharray:none;stroke-opacity:1"
           d="m 21.25,159 c 13.75,1 21.5,4.25 33.5,-0.5 12,-4.75 13.5,-5.25 13.75,-8.75 0.25,-3.5 -0.25,-15.75 -3,-20 C 62.75,125.5 52.5,116 49.75,105.5 47,95 50,64.5 58.25,57.25 66.5,50 90.25,50 95.75,46.75 c 5.5,-3.25 5.25,-16.75 13,-24.5 7.75,-7.75 27,-12.2500003 27,-12.2500003"
           id="path5315" /><path
           inkscape:connector-curvature="0"
           style="opacity:0.38695655;fill:none;stroke:#6d7f42;stroke-width:1;stroke-linecap:round;stroke-linejoin:round;stroke-miterlimit:4;stroke-dasharray:none;stroke-opacity:1"
           d="m 190,18.5 c 11.75,5 39,9.75 47.25,40.25"
           id="path5317" /><path
           inkscape:connector-curvature="0"
           style="opacity:0.38695655;fill:none;stroke:#6d7f42;stroke-width:1;stroke-linecap:round;stroke-linejoin:round;stroke-miterlimit:4;stroke-dasharray:none;stroke-opacity:1"
           d="m 9.75,214 c 19,-12.5 36,-1.25 49,-4 13,-2.75 38.25,-37.25 46,-37 7.75,0.25 5.5,-11.75 8.5,-13.25 3,-1.5 5.5,6 11.75,8 6.25,2 24.5,-2.75 23.5,-5.75 -1,-3 -7,-7.75 -5.5,-8.5 1.5,-0.75 8.5,5 12.75,3.5 4.25,-1.5 43.75,-1 48.5,-13.5 C 209,131 225.75,130 225.75,130"
           id="path5325" /><path
           inkscape:connector-curvature="0"
           style="opacity:0.38695655;fill:none;stroke:#6d7f42;stroke-width:1;stroke-linecap:round;stroke-linejoin:round;stroke-miterlimit:4;stroke-dasharray:none;stroke-opacity:1"
           d="m 77.5,233.5 c 13.5,-11.5 23.25,-25 28.5,-27 5.25,-2 12.75,-3.75 15.75,-8 3,-4.25 2.5,-10.75 5.25,-12 2.75,-1.25 3.75,5.75 8.75,6 5,0.25 36.75,-5 42.75,-11.75 6,-6.75 32.25,-12.5 32.5,-14.5 0.25,-2 -1,-4.75 0.25,-5.5 1.25,-0.75 24.75,-6 24.75,-6"
           id="path5327"
           sodipodi:nodetypes="csssssssc" /><path
           inkscape:connector-curvature="0"
           style="opacity:0.38695655;fill:none;stroke:#6d7f42;stroke-width:1;stroke-linecap:round;stroke-linejoin:round;stroke-miterlimit:4;stroke-dasharray:none;stroke-opacity:1"
           d="m 168.75,236 c 9,-13.75 20.5,-41 29.5,-42 9,-1 10.25,-2.5 12.5,-4.25 2.25,-1.75 17,2.25 17,2.25"
           id="path5329" /></g><g
         transform="translate(-230,-179)"
         clip-path="url(#clipPath5426)"
         id="g5400"
         style="display:inline"><path
           inkscape:connector-curvature="0"
           style="fill:none;stroke:#d38484;stroke-width:2;stroke-linecap:round;stroke-linejoin:miter;stroke-miterlimit:4;stroke-dasharray:none;stroke-opacity:1"
           d="m 57.75,20 -8.5,28.25 18,6.25 L 75,90.75 54,113 l 9,10.5 -12,11.5 0.5,4.5 20.25,24.5 14,-6.75 20.5,18.5 -10.5,28.25 10.25,8.5 -2.75,13"
           id="path5387" /><path
           inkscape:connector-curvature="0"
           style="fill:none;stroke:#d38484;stroke-width:2;stroke-linecap:round;stroke-linejoin:miter;stroke-miterlimit:4;stroke-dasharray:none;stroke-opacity:1"
           d="m 105.75,212.25 12.5,-27.75 11,-7 27.5,15.75 20.5,-3.75 -0.25,-15.75 -10.25,-6 12.75,-26.25 5.75,-3.75 38.75,-10"
           id="path5389" /></g><path
         inkscape:connector-curvature="0"
         id="path3834-49"
         d="m -221,-166.75 c 0,0 7.5,13 11.75,27.75 4.25,14.75 6.25,25.5 6.25,25.5 0,0 -5.5,12.75 -8.25,24.749998 -2.75,12 -5.75,23.000002 -5.75,23.000002 0,0 5.75,16 9.25,30 3.5,14 3.75,24.25 3.75,24.25 0,0 -4,10.2500001 -7.5,24.25 -3.5,14 -5,30.75 -5,30.75 0,0 9.25,-2 28.5,1.25 19.25,3.25 32.25,6 32.25,6 0,0 12.75,-2.75 24,-6.25 11.25,-3.5 16.25,-6.5 16.25,-6.5 0,0 5.5,0.5 22.5,6.25 17,5.75 29.25,8.5 29.25,8.5 0,0 13,-2.75 26,-5.75 13,-3 26.5,-8 26.5,-8 0,0 -0.75,-5 4.2500004,-24.5 5,-19.4999999 8.75,-28 8.75,-28 0,0 -0.5,-4.5 -3.75,-19.75 C -5.2499996,-48.5 -12,-63 -12,-63 c 0,0 1.75,-10.500002 6.7500004,-23.750002 C -0.24999962,-100 5.0000004,-113.5 5.0000004,-113.5 c 0,0 -4.75000002,-15.25 -7.5,-29.75 C -5.2499996,-157.75 -10.75,-169 -10.75,-169 c 0,0 -24.25,9 -31.75,10.5 -7.5,1.5 -21,5.25 -21,5.25 0,0 -9.75,-4.25 -22,-8.5 -12.25,-4.25 -29.75,-5.5 -29.75,-5.5 0,0 -3.25,3.5 -22,8 -18.75,4.5 -27.5,5.75 -27.5,5.75 0,0 -18.5,-9 -31.5,-11.5 -13,-2.5 -24,-2 -24.75,-1.75 z"
         style="display:inline;opacity:0.03913042;fill:url(#linearGradient5168);fill-opacity:1;stroke:none" /><g
         style="display:inline;opacity:0.2695656"
         id="g4808"
         transform="translate(-230,12.999998)"><path
           inkscape:connector-curvature="0"
           style="fill:url(#linearGradient4806-9);fill-opacity:1;stroke:none"
           d="m 219.25,-182 c 0,0 -24.25,9 -31.75,10.5 -7.5,1.5 -21,5.25 -21,5.25 4.92395,-1.35833 11.43679,45.39247 14.25,52.25 l -0.0625,0.28125 c 11.80794,-4.07379 51.21047,-4.76768 54.3125,-12.78125 0,0 -4.75,-15.25 -7.5,-29.75 -2.75,-14.5 -8.25,-25.75 -8.25,-25.75 z"
           id="path3834-4-9" /><path
           inkscape:connector-curvature="0"
           style="fill:url(#linearGradient4790-3);fill-opacity:1;stroke:none"
           d="m 27,-126.5 c 0,0 -5.5,12.75 -8.25,24.75 -2.75,12 -5.75,23 -5.75,23 L 63.625,-62.46875 79.40625,-121.375 27,-126.5 Z"
           id="path3834-7-2-4-9" /><path
           inkscape:connector-curvature="0"
           style="fill:url(#linearGradient4758-2);fill-opacity:1;stroke:none"
           d="m 26,-24.5 c 0,0 -4,10.25 -7.5,24.25 -3.5,14 -5,30.75 -5,30.75 0,0 0.146973,-0.0454 0.4375,-0.0937 2.033691,-0.33838 11.21875,-1.5 28.0625,1.34375 19.25,3.25 32.25,6 32.25,6 l 1.46875,-52.5 -0.75,0.125 L 26,-24.5 Z"
           id="path3834-7-26-9-7" /><path
           inkscape:connector-curvature="0"
           style="fill:url(#linearGradient4750-9);fill-opacity:1;stroke:none"
           d="m 114.75,-180.25 c 0,0 -3.25,3.5 -22,8 -18.749997,4.5 -27.5,5.75 -27.5,5.75 5.182295,14.70354 12.029793,29.27003 14.25,44.75 l -0.09375,0.3125 48.03125,-3.9375 1.125,0.25 c -3.36248,-13.3228 -7.79603,-54.59189 -13.8125,-55.125 z"
           id="path3834-4-9-6" /><path
           inkscape:connector-curvature="0"
           style="fill:url(#linearGradient4782-5);fill-opacity:1;stroke:none"
           d="M 117.59375,-78.09375 63.96875,-62.375 63.625,-62.46875 63.5,-62 l 12.25,46.5 -0.03125,0.75 49.46875,-8.875 0.53125,0.1875 0.0312,-0.0625 -8.25,-54.25 0.0937,-0.34375 1e-4,0 z"
           id="path3834-7-26-0-0-9" /><path
           inkscape:connector-curvature="0"
           style="fill:url(#linearGradient4798-4);fill-opacity:1;stroke:none"
           d="m 128.5625,-125.125 c 0.2342,0.92795 0.46352,1.74163 0.6875,2.375 l -11.65625,44.65625 0.0937,-0.0312 51.8125,17.375 11.1875,-52.96875 c -0.35691,0.12314 -0.69529,0.24538 -1,0.375 l -51.125,-11.78125 5e-5,-5e-5 z"
           id="path3834-7-2-4-3" /><path
           inkscape:connector-curvature="0"
           style="fill:url(#linearGradient4766-3);fill-opacity:1;stroke:none"
           d="M 125.53125,-23.5 114.5,25 c 0,0 5.5,0.5 22.5,6.25 2.125,0.71875 4.16309,1.40576 6.125,2.03125 1.96191,0.62549 3.85547,1.18555 5.625,1.71875 10.61719,3.19922 17.5,4.75 17.5,4.75 l 12.71875,-45.40625 c -0.51226,0.18264 -1.01849,0.381 -1.53125,0.5625 L 125.53125,-23.5 Z"
           id="path3834-7-26-9-85" /><path
           inkscape:connector-curvature="0"
           style="fill:url(#linearGradient4965);fill-opacity:1;stroke:none"
           d="m 218,-76 c -15.66556,6.28803 -31.69786,11.14964 -48.0625,15.40625 L 169.5,-60.75 l 9.5,55 -0.0312,0.0937 c 17.83902,-6.36013 35.38148,-13.3867 52.78125,-20.84375 0,0 -0.5,-4.5 -3.75,-19.75 C 224.75,-61.5 218,-76 218,-76 Z"
           id="path3834-7-26-0-0-3" /></g><g
         style="display:inline;opacity:0.04347827"
         id="g4818"
         transform="translate(-230,12.999998)"><path
           inkscape:connector-curvature="0"
           style="fill:url(#linearGradient4686-3);fill-opacity:1;stroke:none"
           d="m 13.71875,-179.96875 c -1.10624,-0.003 -1.972215,0.0321 -2.71875,0.0625 -0.44524,0.0181 -0.855414,0.039 -1.15625,0.0625 -0.02929,0.002 -0.06595,-0.002 -0.09375,0 -0.397949,0.0327 -0.65625,0.0625 -0.75,0.0937 0,0 7.5,13 11.75,27.75 C 25,-137.25 27,-126.5 27,-126.5 l 51.46875,5.125 0.9375,-0.0625 L 79.5,-121.75 c -2.220207,-15.47997 -9.067705,-30.04646 -14.25,-44.75 0,0 -18.5,-9 -31.5,-11.5 -1.018266,-0.19582 -2.01024,-0.37068 -3,-0.53125 -0.595613,-0.0967 -1.166881,-0.19638 -1.75,-0.28125 -0.236584,-0.0344 -0.453191,-0.0612 -0.6875,-0.0937 -1.306478,-0.18185 -2.588005,-0.34039 -3.8125,-0.46875 -0.734553,-0.077 -1.394596,-0.12759 -2.09375,-0.1875 -0.684889,-0.0591 -1.352939,-0.11189 -2,-0.15625 -0.991872,-0.0678 -1.890406,-0.11834 -2.78125,-0.15625 -1.456368,-0.0631 -2.769165,-0.0907 -3.90625,-0.0937 l 0,-1e-4 z"
           id="path3834-4-9-1" /><path
           inkscape:connector-curvature="0"
           style="fill:url(#linearGradient4742-3);fill-opacity:1;stroke:none"
           d="m 13,-78.75 c 0,0 5.75,16 9.25,30 3.5,14 3.75,24.25 3.75,24.25 l 48.96875,9.875 0.75,-0.125 L 75.75,-15.5 63.5,-62 63.625,-62.46875 13,-78.75 Z"
           id="path3834-7-26-0-0-7" /><path
           inkscape:connector-curvature="0"
           style="fill:url(#linearGradient4734-3);fill-opacity:1;stroke:none"
           d="m 127.4375,-125.375 -47.96875,4 -0.0625,0 -15.78125,58.90625 0.34375,0.09375 53.625,-15.71875 L 129.25,-122.75 c -0.22398,-0.63337 -0.4533,-1.44705 -0.6875,-2.375 l -1.125,-0.25 0,0 z"
           id="path3834-7-2-4-6" /><path
           inkscape:connector-curvature="0"
           style="fill:url(#linearGradient4726-9);fill-opacity:1;stroke:none"
           d="M 125.1875,-23.625 75.71875,-14.75 74.25,37.75 c 0,0 12.750003,-2.75 24,-6.25 C 109.5,28 114.5,25 114.5,25 l 11.21875,-48.4375 -0.53125,-0.1875 z"
           id="path3834-7-26-9-8" /><path
           inkscape:connector-curvature="0"
           style="fill:url(#linearGradient4710-2);fill-opacity:1;stroke:none"
           d="m 114.75,-180.25 c 6.01647,0.53311 10.45002,41.8022 13.8125,55.125 l 51.125,11.78125 c 0.30471,-0.12962 0.64309,-0.25186 1,-0.375 L 180.75,-114 c -2.81321,-6.85753 -9.32605,-53.60833 -14.25,-52.25 0,0 -0.61328,-0.25391 -1.71875,-0.71875 -3.31641,-1.39453 -11.09375,-4.59375 -20.28125,-7.78125 -12.25,-4.25 -29.75,-5.5 -29.75,-5.5 z"
           id="path3834-4-9-2" /><path
           inkscape:connector-curvature="0"
           style="fill:url(#linearGradient4718-4);fill-opacity:1;stroke:none"
           d="m 117.6875,-78.125 -0.0937,0.0312 -0.0937,0.34375 8.25,53.25 -0.21875,1 51.90625,18.40625 c 0.51276,-0.1815 1.01899,-0.37986 1.53125,-0.5625 L 179,-5.75 l -9.5,-55 -51.8125,-17.375 0,0 z"
           id="path3834-7-26-0-0-0" /><path
           inkscape:connector-curvature="0"
           style="fill:url(#linearGradient4694-4);fill-opacity:1;stroke:none"
           d="m 231.75,-26.5 c -17.39977,7.45705 -34.94223,14.48362 -52.78125,20.84375 L 166.25,39.75 c 0,0 13,-2.75 26,-5.75 13,-3 26.5,-8 26.5,-8 0,0 -0.75,-5 4.25,-24.5 5,-19.5 8.75,-28 8.75,-28 z"
           id="path3834-7-26-9-9" /><path
           inkscape:connector-curvature="0"
           style="fill:url(#linearGradient4702-4);fill-opacity:1;stroke:none"
           d="m 235,-126.5 c -3.10203,8.01357 -42.50456,8.70746 -54.3125,12.78125 L 169.5,-60.75 l 0.4375,0.15625 C 186.30214,-64.85036 202.33444,-69.71197 218,-76 c 0,0 1.75,-10.5 6.75,-23.75 5,-13.25 10.25,-26.75 10.25,-26.75 z"
           id="path3834-7-2-4-5" /></g><path
         inkscape:connector-curvature="0"
         clip-path="url(#clipPath8750)"
         transform="matrix(1,0.08087767,0,1,-230,-190.05631)"
         id="path5604-26-0"
         d="m 174.28125,35.875 c -17.59875,0 -35.19216,6.639475 -48.71875,19.90625 -0.16722,0.163278 -0.33437,0.303117 -0.5,0.46875 -22.05595,22.055948 -26.208705,55.25122 -12.46875,81.5 l -2.28125,1.625 c 2.24879,4.23988 4.94165,8.3068 8.09375,12.125 l -13.3125,13.34375 c -1.34137,-0.58575 -2.78858,-1.03331 -4.5625,-1.375 l -2.84375,2.84375 c -1.109469,-0.48387 -2.138019,-0.81588 -3.0625,-0.875 L 30.5,229.5625 c -0.03687,1.10087 0.22615,2.18738 0.65625,3.28125 l -0.53125,0.53125 -1.09375,1.09375 c 0.715438,3.7378 2.010432,6.82294 5.46875,10.28125 3.458318,3.45832 6.420414,4.63027 10.28125,5.46875 l 1.09375,-1.09375 0.71875,-0.71875 c 1.088203,0.46225 2.129899,0.78617 3.09375,0.84375 l 64.125,-64.125 c -0.24286,-0.97475 -0.62043,-1.93546 -1.03125,-2.90625 l 3,-3 c -0.24983,-1.73198 -0.67671,-3.19803 -1.3125,-4.59375 L 128.25,161.34375 c 3.8182,3.1521 7.88512,5.84497 12.125,8.09375 L 142,167.15625 c 26.24878,13.73995 59.44405,9.58719 81.5,-12.46875 0.16563,-0.16564 0.30547,-0.33278 0.46875,-0.5 C 250.66292,126.97054 250.51736,83.267352 223.5,56.25 209.91004,42.660041 192.09307,35.875 174.28125,35.875 Z m -0.5,3.28125 c 0.10467,0.0015 0.20783,-0.002 0.3125,0 0.94919,0.0184 1.89538,0.06527 2.84375,0.125 0.95844,0.06036 1.9188,0.147513 2.875,0.25 0.0937,0.01005 0.18754,0.0208 0.28125,0.03125 0.094,0.01048 0.1873,0.02037 0.28125,0.03125 0.1457,0.01688 0.29187,0.04464 0.4375,0.0625 0.8962,0.109902 1.79491,0.228119 2.6875,0.375 0.61909,0.101874 1.22687,0.224117 1.84375,0.34375 0.34295,0.06644 0.68907,0.11558 1.03125,0.1875 0.7237,0.152111 1.43647,0.323392 2.15625,0.5 0.31305,0.07681 0.62528,0.137311 0.9375,0.21875 0.0731,0.01906 0.1457,0.04319 0.21875,0.0625 0.9559,0.252837 1.89673,0.516294 2.84375,0.8125 0.0724,0.02261 0.14641,0.03963 0.21875,0.0625 0.94741,0.299842 1.90684,0.625541 2.84375,0.96875 0.0531,0.01945 0.10323,0.04291 0.15625,0.0625 0.95458,0.352395 1.90174,0.727633 2.84375,1.125 0.0515,0.02172 0.10478,0.04064 0.15625,0.0625 0.94184,0.400051 1.88491,0.836281 2.8125,1.28125 0.042,0.02016 0.083,0.04225 0.125,0.0625 0.93538,0.451087 1.86208,0.909529 2.78125,1.40625 0.0331,0.01788 0.0607,0.04456 0.0937,0.0625 0.92681,0.502833 1.84142,1.013321 2.75,1.5625 0.0321,0.01939 0.0617,0.04305 0.0937,0.0625 0.9081,0.550934 1.79937,1.121562 2.6875,1.71875 0.54895,0.369074 1.0842,0.76954 1.625,1.15625 0.3647,0.260827 0.73291,0.512412 1.09375,0.78125 0.0185,0.01381 0.044,0.01742 0.0625,0.03125 0.87764,0.655206 1.74021,1.359931 2.59375,2.0625 1.74268,1.434371 3.43142,2.962673 5.0625,4.59375 1.62048,1.62048 3.13618,3.300564 4.5625,5.03125 0.009,0.01124 0.022,0.02 0.0312,0.03125 0.70321,0.854357 1.40674,1.715235 2.0625,2.59375 0.28277,0.378769 0.53857,0.773223 0.8125,1.15625 0.36973,0.517057 0.74014,1.037986 1.09375,1.5625 0.0162,0.02399 0.0464,0.03849 0.0625,0.0625 0.59812,0.889626 1.16704,1.777833 1.71875,2.6875 0.0195,0.03207 0.0431,0.06166 0.0625,0.09375 0.54559,0.902919 1.06267,1.829073 1.5625,2.75 0.0179,0.03294 0.0447,0.06079 0.0625,0.09375 0.498,0.921212 0.95408,1.843744 1.40625,2.78125 0.0202,0.04194 0.0424,0.08302 0.0625,0.125 0.44611,0.929867 0.88027,1.868304 1.28125,2.8125 0.0218,0.05123 0.0409,0.104977 0.0625,0.15625 0.3948,0.936122 0.77461,1.895211 1.125,2.84375 0.0194,0.05253 0.0432,0.103686 0.0625,0.15625 0.34761,0.94836 0.66558,1.884632 0.96875,2.84375 0.0227,0.07167 0.0401,0.147026 0.0625,0.21875 0.29398,0.941172 0.56134,1.893822 0.8125,2.84375 0.0195,0.07353 0.0433,0.145172 0.0625,0.21875 0.0807,0.309554 0.14258,0.627132 0.21875,0.9375 0.17661,0.719779 0.34789,1.432546 0.5,2.15625 0.0719,0.342177 0.12106,0.688299 0.1875,1.03125 0.11963,0.616882 0.24188,1.224661 0.34375,1.84375 0.14688,0.892594 0.2651,1.791302 0.375,2.6875 0.0179,0.145959 0.0456,0.291463 0.0625,0.4375 0.0108,0.09329 0.0208,0.187929 0.0312,0.28125 0.0105,0.09398 0.0212,0.187243 0.0312,0.28125 0.10249,0.9562 0.18964,1.91656 0.25,2.875 0.0592,0.94244 0.10661,1.90049 0.125,2.84375 0.002,0.10413 -0.002,0.20837 0,0.3125 0.0154,1.05333 0.004,2.10385 -0.0312,3.15625 -0.0316,0.93056 -0.0847,1.85279 -0.15625,2.78125 -0.01,0.12493 -0.0209,0.25012 -0.0312,0.375 -0.0761,0.91807 -0.16591,1.8354 -0.28125,2.75 -0.1206,0.95626 -0.27395,1.92393 -0.4375,2.875 -0.0142,0.0824 -0.0168,0.16767 -0.0312,0.25 -0.022,0.12485 -0.0397,0.25026 -0.0625,0.375 -0.16526,0.90778 -0.3579,1.81727 -0.5625,2.71875 -0.0306,0.13463 -0.0623,0.27178 -0.0937,0.40625 -0.20775,0.88866 -0.44134,1.7751 -0.6875,2.65625 -0.16391,0.58672 -0.35028,1.16705 -0.53125,1.75 -0.17541,0.56412 -0.33984,1.12724 -0.53125,1.6875 -0.29467,0.86381 -0.60475,1.70882 -0.9375,2.5625 -0.0606,0.15549 -0.12566,0.31362 -0.1875,0.46875 -0.0449,0.11246 -0.0795,0.23148 -0.125,0.34375 -0.3561,0.87862 -0.72813,1.7276 -1.125,2.59375 -0.37698,0.82347 -0.7736,1.62644 -1.1875,2.4375 -0.0805,0.15778 -0.16807,0.31147 -0.25,0.46875 -0.41528,0.7974 -0.82998,1.59095 -1.28125,2.375 -0.0952,0.16556 -0.1844,0.33506 -0.28125,0.5 -0.19907,0.33885 -0.41915,0.66384 -0.625,1 -0.36165,0.59093 -0.74237,1.16777 -1.125,1.75 -0.005,0.007 0.005,0.0238 0,0.0312 -0.49081,0.74574 -1.00593,1.48819 -1.53125,2.21875 -0.45727,0.63592 -0.95404,1.25128 -1.4375,1.875 -0.19696,0.25409 -0.36119,0.52926 -0.5625,0.78125 -0.13402,0.16779 -0.2703,0.33315 -0.40625,0.5 -0.16351,0.20064 -0.3337,0.39451 -0.5,0.59375 -0.55662,0.66705 -1.13079,1.31785 -1.71875,1.96875 -0.60631,0.67104 -1.23531,1.34705 -1.875,2 -0.16096,0.16426 -0.30567,0.33692 -0.46875,0.5 -21.13035,21.13035 -52.25869,24.49488 -77.1875,11.15625 l 0.125,-0.1875 c -3.70417,-1.89661 -7.26167,-4.14046 -10.625,-6.78125 -0.53892,-0.42315 -1.06537,-0.86982 -1.59375,-1.3125 -0.51441,-0.43097 -1.0273,-0.8629 -1.53125,-1.3125 -0.0929,-0.0836 -0.18872,-0.1658 -0.28125,-0.25 -0.82173,-0.74776 -1.61189,-1.51814 -2.40625,-2.3125 -0.79436,-0.79436 -1.56473,-1.58452 -2.3125,-2.40625 -0.0842,-0.0925 -0.16639,-0.18838 -0.25,-0.28125 -0.4496,-0.50395 -0.88153,-1.01684 -1.3125,-1.53125 -0.44268,-0.52838 -0.88935,-1.05483 -1.3125,-1.59375 -2.64079,-3.36333 -4.88464,-6.92084 -6.78125,-10.625 l -0.1875,0.125 c -13.33863,-24.92881 -9.9741,-56.057154 11.15625,-77.1875 0.16308,-0.16308 0.33574,-0.307785 0.5,-0.46875 0.65295,-0.639685 1.32896,-1.268689 2,-1.875 0.6509,-0.587956 1.3017,-1.162134 1.96875,-1.71875 0.27214,-0.227086 0.53777,-0.465624 0.8125,-0.6875 0.34347,-0.277429 0.71509,-0.511958 1.0625,-0.78125 0.62372,-0.483463 1.23908,-0.980231 1.875,-1.4375 0.73753,-0.530331 1.497,-1.03609 2.25,-1.53125 0.58223,-0.382634 1.15907,-0.763354 1.75,-1.125 0.44667,-0.27336 0.89235,-0.551116 1.34375,-0.8125 0.68145,-0.394786 1.37084,-0.757473 2.0625,-1.125 0.17606,-0.09355 0.35456,-0.18946 0.53125,-0.28125 0.94525,-0.490975 1.88143,-0.9657 2.84375,-1.40625 0.86615,-0.396875 1.71513,-0.7689 2.59375,-1.125 0.15281,-0.06193 0.31559,-0.09555 0.46875,-0.15625 0.96839,-0.384022 1.92468,-0.758909 2.90625,-1.09375 0.56026,-0.191407 1.12338,-0.355843 1.6875,-0.53125 0.58295,-0.180968 1.16328,-0.367339 1.75,-0.53125 0.88115,-0.246163 1.76759,-0.479746 2.65625,-0.6875 0.0711,-0.01664 0.14757,-0.01486 0.21875,-0.03125 0.41593,-0.09574 0.83264,-0.193899 1.25,-0.28125 0.67213,-0.140825 1.35582,-0.287161 2.03125,-0.40625 0.0823,-0.01449 0.16763,-0.01709 0.25,-0.03125 0.95107,-0.163551 1.91874,-0.316902 2.875,-0.4375 1.96365,-0.247645 3.92987,-0.401636 5.90625,-0.46875 1.0524,-0.03564 2.10292,-0.04663 3.15625,-0.03125 l 5e-5,5e-5 z"
         style="display:inline;fill:#2d3335;fill-opacity:1;stroke:none;filter:url(#filter7286)" /><path
         inkscape:connector-curvature="0"
         sodipodi:nodetypes="ccccc"
         id="rect5757-8-7-7-9"
         d="m -181.98975,58.456828 -4.8075,4.55783 c -5.00629,-5.31515 -10.23997,-10.7063 -15.0793,-16.13311 l 4.49022,-4.07257 c 6.82915,6.53426 8.87264,8.52989 15.39658,15.64785 z"
         style="display:inline;fill:url(#linearGradient6241);fill-opacity:1;stroke:none" /><path
         inkscape:connector-curvature="0"
         sodipodi:nodetypes="csssccsssc"
         id="path5604-26"
         d="m -104.93581,-34.31414 c -27.17992,-27.17992 -27.17992,-71.24727 0,-98.42718 27.17992,-27.17992 71.24726,-27.17992 98.4271804,0 27.1799196,27.17991 27.1799196,71.24726 0,98.42718 -27.1799204,27.1799101 -71.2472604,27.1799101 -98.4271804,0 z m 2.95282,-2.95282 c 26.09272,26.09272 67.41309,27.07699 93.5058204,0.98427 26.0927196,-26.09272 25.1084396,-67.4131 -0.98428,-93.50582 -26.0927204,-26.09272 -67.4131004,-27.07699 -93.5058204,-0.98427 -26.09272,26.09272 -25.10845,67.4131 0.98428,93.50582 l 0,0 z"
         style="display:inline;fill:#2d3335;fill-opacity:1;stroke:none" /><path
         inkscape:connector-curvature="0"
         id="path5604-2-9"
         d="m -104.93588,-34.31421 c -27.17992,-27.17992 -27.17992,-71.24727 0,-98.42718 0.16563,-0.16564 0.32492,-0.32886 0.49214,-0.49214 -26.68504,27.21761 -26.52215,70.92076 0.49213,97.93504 27.01429,27.0142901 70.71744,27.1771801 97.9350504,0.49214 -0.16328,0.16722 -0.32651,0.3265 -0.49214,0.49214 -27.1799204,27.1799101 -71.2472604,27.1799101 -98.4271804,0 z m 2.46068,-96.95078 c 0.16259,-0.16652 0.3271,-0.32709 0.49214,-0.49213 26.09272,-26.09272 67.4131,-25.10845 93.5058204,0.98427 26.0927196,26.09272 27.0769896,67.4131 0.98427,93.50582 -0.16504,0.16504 -0.32561,0.32955 -0.49214,0.49214 C 17.6023,-62.89278 16.46616,-103.8609 -9.4615196,-129.78858 -35.38919,-155.71626 -76.3573,-156.85238 -102.4752,-131.26499 l 0,0 z"
         style="display:inline;fill:#9eaaac;fill-opacity:1;stroke:none" /><path
         inkscape:connector-curvature="0"
         sodipodi:nodetypes="csssc"
         id="path5604-9-13"
         d="m -102.96727,-36.28269 c 26.09272,26.09272 68.39737,26.09272 94.4901004,0 26.0927196,-26.09272 26.0927196,-68.39737 0,-94.49009 -26.0927304,-26.09272 -68.3973804,-26.09272 -94.4901004,0 -26.09272,26.09272 -26.09272,68.39737 0,94.49009 z"
         style="display:inline;fill:#d0e9f2;fill-opacity:0.47593581;stroke:none" /><path
         inkscape:connector-curvature="0"
         sodipodi:nodetypes="csssc"
         id="path5604-9-1-3"
         d="m -102.96727,-36.28269 c 26.09272,26.09272 68.39738,26.09271 94.4901004,0 26.0927196,-26.09272 26.0927196,-68.39737 0,-94.49009 -26.0927304,-26.09272 -68.3973704,-26.09273 -94.4901004,0 -26.09271,26.09271 -26.09272,68.39737 0,94.49009 z"
         style="display:inline;fill:url(#radialGradient6256);fill-opacity:1;stroke:none" /><path
         inkscape:connector-curvature="0"
         id="path5604-9-1-8-8-1"
         d="m -113.94805,-53.722752 -5.75184,4.09088 c 3.29528,6.21295 7.5633,12.05404 12.79554,17.28627 5.23223,5.23223 11.07332,9.50026 17.28627,12.79553 l 4.09088,-5.75184 c -5.92667,-3.03457 -11.494,-7.00326 -16.45579,-11.96505 -4.9618,-4.96179 -8.93048,-10.52913 -11.96506,-16.45579 l 0,0 z"
         style="display:inline;fill:url(#linearGradient6253);fill-opacity:1;stroke:none" /><path
         inkscape:connector-curvature="0"
         id="rect5757-5"
         d="m -105.18188,-34.068082 c 1.72916,1.72916 3.08396,3.6709 4.12164,5.72108 l -26.20624,26.2062402 c -2.05018,-1.03768 -3.99192,-2.39248 -5.72108,-4.12164 -1.72915,-1.72916 -3.08396,-3.6709 -4.12163,-5.7210802 l 26.20623,-26.20623 c 2.05018,1.03767 3.99192,2.39247 5.72108,4.12163 z"
         style="display:inline;fill:url(#linearGradient6250);fill-opacity:1;stroke:none" /><path
         inkscape:connector-curvature="0"
         sodipodi:nodetypes="ccsccc"
         id="rect5757-8-7-2"
         d="m -113.73328,-9.7683318 -66.06816,66.0681698 c -3.98387,-2.19185 -5.83129,-3.00043 -9.28961,-6.45875 -3.45832,-3.45831 -4.26689,-5.30573 -6.45874,-9.2896 l 66.06816,-66.06816 c 5.06335,3.74802 12.11694,10.39792 15.74835,15.7483402 z"
         style="display:inline;fill:url(#linearGradient6247);fill-opacity:1;stroke:none" /><path
         inkscape:connector-curvature="0"
         sodipodi:nodetypes="ccccccc"
         id="rect5757-8-6"
         d="m -124.22116,-14.882032 c 3.45832,3.45832 7.4348,6.6663602 8.51934,11.0193402 l -64.09962,64.0996098 c -6.51611,-5.15502 -14.55477,-12.79063 -19.68544,-19.68543 l 64.09962,-64.09962 c 3.49173,0.2233 7.65885,5.15887 11.11717,8.61718 l 0.0489,0.0489 z"
         style="display:inline;fill:url(#linearGradient6244);fill-opacity:1;stroke:none" /><path
         inkscape:connector-curvature="0"
         sodipodi:nodetypes="ccccccc"
         id="rect5757-8-6-3"
         d="m -124.46578,-14.637412 c 3.45832,3.45832 7.67942,6.4217402 8.76396,10.7747202 l -64.09962,64.0996098 c -7.87693,-6.90746 -11.79719,-10.62442 -19.68544,-19.68543 l 64.09962,-64.09962 c 3.49173,0.2233 7.41424,5.45241 10.87256,8.91072 l 0.0489,0 z"
         style="display:inline;opacity:0.59565214;fill:url(#linearGradient6279);fill-opacity:1;stroke:none" /><path
         inkscape:connector-curvature="0"
         id="path6587"
         d="m -98.8317,-131.95006 c 40.65864,-32.17335 78.1353,-12.72792 77.78175,5.30331 -0.35355,18.03122 -56.56854,70.35712 -76.36753,66.11448 -19.79899,-4.24264 -25.45585,-53.38656 -1.41422,-71.41779 z"
         style="display:inline;opacity:0.6043478;fill:url(#linearGradient6595);fill-opacity:1;stroke:none" /><text
         transform="matrix(0.98796088,-0.1547039,0.1547039,0.98796088,0,0)"
         id="text6302-7"
         y="-133.36293"
         x="-101.24718"
         style="font-style:normal;font-variant:normal;font-weight:normal;font-stretch:normal;font-size:19.79973221px;font-family:Sans;-inkscape-font-specification:Sans;display:inline;opacity:0.46086958;fill:url(#radialGradient6482);fill-opacity:1;stroke:none"
         xml:space="preserve"><tspan
           style="font-style:normal;font-variant:normal;font-weight:bold;font-stretch:normal;font-family:Monospace;-inkscape-font-specification:'Monospace Bold';fill:url(#radialGradient6482);fill-opacity:1"
           y="-133.36293"
           x="-101.24718"
           id="tspan6304-0"
           sodipodi:role="line">01011001</tspan><tspan
           id="tspan6415-7"
           style="font-style:normal;font-variant:normal;font-weight:bold;font-stretch:normal;font-family:Monospace;-inkscape-font-specification:'Monospace Bold';fill:url(#radialGradient6482);fill-opacity:1"
           y="-108.61327"
           x="-101.24718"
           sodipodi:role="line">00110101</tspan><tspan
           id="tspan6417-1"
           style="font-style:normal;font-variant:normal;font-weight:bold;font-stretch:normal;font-family:Monospace;-inkscape-font-specification:'Monospace Bold';fill:url(#radialGradient6482);fill-opacity:1"
           y="-83.863602"
           x="-101.24718"
           sodipodi:role="line">10010011</tspan><tspan
           id="tspan6419-9"
           style="font-style:normal;font-variant:normal;font-weight:bold;font-stretch:normal;font-family:Monospace;-inkscape-font-specification:'Monospace Bold';fill:url(#radialGradient6482);fill-opacity:1"
           y="-59.113934"
           x="-101.24718"
           sodipodi:role="line" /></text>
<text
         transform="matrix(0.98796088,-0.1547039,0.1547039,0.98796088,0,0)"
         id="text6302"
         y="-134.64896"
         x="-101.67587"
         style="font-style:normal;font-variant:normal;font-weight:normal;font-stretch:normal;font-size:19.79973221px;font-family:Sans;-inkscape-font-specification:Sans;display:inline;fill:url(#radialGradient6427);fill-opacity:1;stroke:none"
         xml:space="preserve"><tspan
           style="font-style:normal;font-variant:normal;font-weight:bold;font-stretch:normal;font-family:Monospace;-inkscape-font-specification:'Monospace Bold';fill:url(#radialGradient6427);fill-opacity:1"
           y="-134.64896"
           x="-101.67587"
           id="tspan6304"
           sodipodi:role="line">01011001</tspan><tspan
           id="tspan6415"
           style="font-style:normal;font-variant:normal;font-weight:bold;font-stretch:normal;font-family:Monospace;-inkscape-font-specification:'Monospace Bold';fill:url(#radialGradient6427);fill-opacity:1"
           y="-109.89929"
           x="-101.67587"
           sodipodi:role="line">00110101</tspan><tspan
           id="tspan6417"
           style="font-style:normal;font-variant:normal;font-weight:bold;font-stretch:normal;font-family:Monospace;-inkscape-font-specification:'Monospace Bold';fill:url(#radialGradient6427);fill-opacity:1"
           y="-85.149628"
           x="-101.67587"
           sodipodi:role="line">10010011</tspan><tspan
           id="tspan6419"
           style="font-style:normal;font-variant:normal;font-weight:bold;font-stretch:normal;font-family:Monospace;-inkscape-font-specification:'Monospace Bold';fill:url(#radialGradient6427);fill-opacity:1"
           y="-60.39996"
           x="-101.67587"
           sodipodi:role="line" /></text>
<path
         inkscape:connector-curvature="0"
         id="path6587-7"
         d="m -10.53682,-39.90981 c -26.79401,21.9828 -41.80834,21.0073 -38.07474,13.13797 3.73361,-7.86929 42.3258504,-41.65518 51.4471704,-43.748202 9.1212996,-2.09301 2.27518,18.041212 -13.3724304,30.610232 z"
         style="display:inline;opacity:0.76521738;fill:url(#linearGradient6614);fill-opacity:1;stroke:none" /><text
         sodipodi:linespacing="125%"
         id="text3953"
         y="-48.612534"
         x="-97.016396"
         style="font-style:normal;font-variant:normal;font-weight:bold;font-stretch:normal;font-size:95px;line-height:125%;font-family:sans-serif;-inkscape-font-specification:'sans-serif, Bold';text-align:start;letter-spacing:0px;word-spacing:0px;writing-mode:lr-tb;text-anchor:start;display:inline;fill:#000000;fill-opacity:1;stroke:none;stroke-width:1px;stroke-linecap:butt;stroke-linejoin:miter;stroke-opacity:1"
         xml:space="preserve"><tspan
           y="-48.612534"
           x="-97.016396"
           id="tspan3955"
           sodipodi:role="line">H</tspan></text>
</g></g></svg>